<svg width="151" height="169" viewBox="0 0 151 169" fill="none" xmlns="http://www.w3.org/2000/svg">
<g clip-path="url(#clip0_81_57)">
<path opacity="0.7" d="M62 157L149 71" stroke="#5A5AFF" stroke-width="10" stroke-miterlimit="10"/>
<path opacity="0.7" d="M2 168L94 76" stroke="#5A5AFF" stroke-width="10" stroke-miterlimit="10"/>
<path opacity="0.7" d="M5 116L117 4" stroke="#5A5AFF" stroke-width="10" stroke-miterlimit="10"/>
<path opacity="0.7" d="M149 71C139.61 80.3333 124.39 80.3333 115 71" stroke="#5A5AFF" stroke-width="10" stroke-miterlimit="10"/>
<path opacity="0.7" d="M149 105C139.667 95.6098 139.667 80.3902 149 71" stroke="#5A5AFF" stroke-width="10" stroke-miterlimit="10"/>
<path opacity="0.7" d="M94 76C85.995 84 73.005 84 65 76" stroke="#5A5AFF" stroke-width="10" stroke-miterlimit="10"/>
<path opacity="0.7" d="M94 105C86 96.995 86 84.005 94 76" stroke="#5A5AFF" stroke-width="10" stroke-miterlimit="10"/>
<path opacity="0.7" d="M116.39 3.54004C107.16 12.77 92.2 12.77 82.97 3.54004" stroke="#5A5AFF" stroke-width="10" stroke-miterlimit="10"/>
<path opacity="0.7" d="M116.39 36.95C107.16 27.72 107.16 12.76 116.39 3.53003" stroke="#5A5AFF" stroke-width="10" stroke-miterlimit="10"/>
</g>
<defs>
<clipPath id="clip0_81_57">
<rect width="150.96" height="168.48" fill="white"/>
</clipPath>
</defs>
</svg>
