<svg width="137" height="149" viewBox="0 0 137 149" fill="none" xmlns="http://www.w3.org/2000/svg">
<g clip-path="url(#clip0_81_41)">
<path opacity="0.7" d="M128.28 13.06C118.61 7.91 107.57 5 95.85 5C57.67 5 26.71 35.95 26.71 74.14C26.71 112.33 57.66 143.28 95.85 143.28C110.05 143.28 123.25 139 134.23 131.66" stroke="#5A5AFF" stroke-width="10" stroke-miterlimit="10"/>
<path opacity="0.7" d="M0 64.03H107.22" stroke="#5A5AFF" stroke-width="10" stroke-miterlimit="10"/>
<path opacity="0.7" d="M0 84.24H107.22" stroke="#5A5AFF" stroke-width="10" stroke-miterlimit="10"/>
<path opacity="0.7" d="M122.69 113.95C115.03 119.13 105.79 122.15 95.84 122.15C69.32 122.15 47.83 100.65 47.83 74.14C47.83 47.63 69.33 26.13 95.84 26.13C103.98 26.13 111.65 28.16 118.37 31.73" stroke="#5A5AFF" stroke-width="10" stroke-miterlimit="10"/>
</g>
<defs>
<clipPath id="clip0_81_41">
<rect width="137" height="148.27" fill="white"/>
</clipPath>
</defs>
</svg>
