<svg width="201" height="149" viewBox="0 0 201 149" fill="none" xmlns="http://www.w3.org/2000/svg">
<g clip-path="url(#clip0_81_67)">
<path opacity="0.7" d="M100.26 143.28C138.445 143.28 169.4 112.325 169.4 74.14C169.4 35.955 138.445 5 100.26 5C62.075 5 31.12 35.955 31.12 74.14C31.12 112.325 62.075 143.28 100.26 143.28Z" stroke="#5A5AFF" stroke-width="10" stroke-miterlimit="10"/>
<path opacity="0.7" d="M150.43 111.02H50.09C50.09 93.21 72.55 78.76 100.26 78.76C127.97 78.76 150.43 93.2 150.43 111.02Z" stroke="#5A5AFF" stroke-width="10" stroke-miterlimit="10"/>
<path opacity="0.7" d="M71.51 116C71.51 105.79 84.38 97.51 100.26 97.51C116.14 97.51 129.01 105.79 129.01 116" stroke="#5A5AFF" stroke-width="10" stroke-miterlimit="10"/>
<path opacity="0.7" d="M65.6201 40.98L92.6701 55.2L56.9301 55.46" stroke="#5A5AFF" stroke-width="10" stroke-linejoin="bevel"/>
<path opacity="0.7" d="M134.91 40.98L107.86 55.2L143.59 55.46" stroke="#5A5AFF" stroke-width="10" stroke-linejoin="bevel"/>
<path opacity="0.7" d="M178.7 55.46H200.52" stroke="#5A5AFF" stroke-width="10" stroke-miterlimit="10"/>
<path opacity="0.7" d="M165.77 24.4L186.81 13.34" stroke="#5A5AFF" stroke-width="10" stroke-linejoin="bevel"/>
<path opacity="0.7" d="M21.82 55.46H0" stroke="#5A5AFF" stroke-width="10" stroke-miterlimit="10"/>
<path opacity="0.7" d="M34.75 24.4L13.71 13.34" stroke="#5A5AFF" stroke-width="10" stroke-linejoin="bevel"/>
</g>
<defs>
<clipPath id="clip0_81_67">
<rect width="200.52" height="148.27" fill="white"/>
</clipPath>
</defs>
</svg>
