<svg width="129" height="174" viewBox="0 0 129 174" fill="none" xmlns="http://www.w3.org/2000/svg">
<path opacity="0.75" d="M50.5296 77.5298C54.3188 77.5298 57.3906 74.4581 57.3906 70.6689C57.3906 66.8797 54.3188 63.808 50.5296 63.808C46.7404 63.808 43.6687 66.8797 43.6687 70.6689C43.6687 74.4581 46.7404 77.5298 50.5296 77.5298Z" fill="#5A5AFF"/>
<path opacity="0.75" d="M18.1853 70.669C18.1853 52.8059 32.6666 38.3246 50.5297 38.3246C68.3927 38.3246 82.874 52.8059 82.874 70.669" stroke="#5A5AFF" stroke-width="10" stroke-miterlimit="10"/>
<path opacity="0.75" d="M5.4436 70.3724C5.4436 45.0945 25.8488 24.6027 51.0198 24.6027C76.1907 24.6027 96.5959 45.0945 96.5959 70.3724C96.5959 95.6503 75.6703 104.26 75.6703 121.203C75.6703 138.764 61.4946 153 44.008 153" stroke="#5A5AFF" stroke-width="10" stroke-miterlimit="10"/>
<path opacity="0.75" d="M79.9337 19.7019C87.2771 23.8508 93.6331 29.5528 98.5562 36.3642" stroke="#5A5AFF" stroke-width="10" stroke-miterlimit="10"/>
<path opacity="0.75" d="M80.9138 5C94.6698 11.5471 106.032 22.6074 113.258 36.3642" stroke="#5A5AFF" stroke-width="10" stroke-miterlimit="10"/>
</svg>
