<svg width="188" height="119" viewBox="0 0 188 119" fill="none" xmlns="http://www.w3.org/2000/svg">
<g clip-path="url(#clip0_81_46)">
<path opacity="0.7" d="M18.63 27.26C18.63 48.06 35.49 64.92 56.29 64.92C77.09 64.92 93.95 48.06 93.95 27.26" stroke="#5A5AFF" stroke-width="10" stroke-miterlimit="10"/>
<path opacity="0.7" d="M93.9399 27.26C93.9399 48.06 110.8 64.92 131.6 64.92C152.4 64.92 169.26 48.06 169.26 27.26" stroke="#5A5AFF" stroke-width="10" stroke-miterlimit="10"/>
<path opacity="0.7" d="M169.25 27.26V113.4H18.63V27.26" stroke="#5A5AFF" stroke-width="10" stroke-miterlimit="10"/>
<path opacity="0.7" d="M18.63 91.08H169.25" stroke="#5A5AFF" stroke-width="10" stroke-miterlimit="10" stroke-linecap="square"/>
<g opacity="0.7">
<path d="M93.9401 10C98.7101 10 102.57 13.86 102.57 18.63C102.57 23.4 98.7101 27.26 93.9401 27.26C89.1701 27.26 85.3101 23.4 85.3101 18.63C85.3101 13.86 89.1701 10 93.9401 10ZM93.9401 0C83.6701 0 75.3101 8.36 75.3101 18.63C75.3101 28.9 83.6701 37.26 93.9401 37.26C104.21 37.26 112.57 28.9 112.57 18.63C112.57 8.36 104.21 0 93.9401 0Z" fill="#5A5AFF"/>
</g>
<g opacity="0.7">
<path d="M169.25 10C174.02 10 177.88 13.86 177.88 18.63C177.88 23.4 174.02 27.26 169.25 27.26C164.48 27.26 160.62 23.4 160.62 18.63C160.62 13.86 164.48 10 169.25 10ZM169.25 0C158.98 0 150.62 8.36 150.62 18.63C150.62 28.9 158.98 37.26 169.25 37.26C179.52 37.26 187.88 28.9 187.88 18.63C187.88 8.36 179.52 0 169.25 0Z" fill="#5A5AFF"/>
</g>
<g opacity="0.7">
<path d="M18.63 10C23.4 10 27.26 13.86 27.26 18.63C27.26 23.4 23.4 27.26 18.63 27.26C13.86 27.26 10 23.4 10 18.63C10 13.86 13.86 10 18.63 10ZM18.63 0C8.36 0 0 8.36 0 18.63C0 28.9 8.36 37.26 18.63 37.26C28.9 37.26 37.26 28.9 37.26 18.63C37.26 8.36 28.9 0 18.63 0Z" fill="#5A5AFF"/>
</g>
</g>
<defs>
<clipPath id="clip0_81_46">
<rect width="187.88" height="118.4" fill="white"/>
</clipPath>
</defs>
</svg>
