<svg width="101" height="135" viewBox="0 0 101 135" fill="none" xmlns="http://www.w3.org/2000/svg">
<g clip-path="url(#clip0_81_28)">
<path opacity="0.7" d="M79.7134 135C79.7134 123.214 89.2428 113.662 101 113.662" stroke="#5A5AFF" stroke-width="10" stroke-miterlimit="10"/>
<path opacity="0.7" d="M67.3375 67.5H54.9615C43.2044 67.5 33.6749 77.0525 33.6749 88.838V101.244" stroke="#5A5AFF" stroke-width="10" stroke-miterlimit="10"/>
<path opacity="0.7" d="M33.6626 33.7438V46.1496C33.6626 57.9351 43.1921 67.4876 54.9492 67.4876H67.3251" stroke="#5A5AFF" stroke-width="10" stroke-miterlimit="10"/>
<path opacity="0.7" d="M0 67.5H12.3759C24.1331 67.5 33.6625 57.9476 33.6625 46.162V33.7562" stroke="#5A5AFF" stroke-width="10" stroke-miterlimit="10"/>
<path opacity="0.7" d="M33.6625 101.244V88.838C33.6625 77.0525 24.1331 67.5 12.3759 67.5H0" stroke="#5A5AFF" stroke-width="10" stroke-miterlimit="10"/>
<path opacity="0.7" d="M101 113.65C89.2428 113.65 79.7134 104.097 79.7134 92.3116" stroke="#5A5AFF" stroke-width="10" stroke-miterlimit="10"/>
<path opacity="0.7" d="M79.7134 92.3116C79.7134 104.097 70.1839 113.65 58.4268 113.65" stroke="#5A5AFF" stroke-width="10" stroke-miterlimit="10"/>
<path opacity="0.7" d="M58.4144 113.65C70.1716 113.65 79.701 123.202 79.701 134.988" stroke="#5A5AFF" stroke-width="10" stroke-miterlimit="10"/>
<path opacity="0.7" d="M79.7134 42.6883C79.7134 30.9028 89.2428 21.3503 101 21.3503" stroke="#5A5AFF" stroke-width="10" stroke-miterlimit="10"/>
<path opacity="0.7" d="M101 21.338C89.2428 21.338 79.7134 11.7855 79.7134 0" stroke="#5A5AFF" stroke-width="10" stroke-miterlimit="10"/>
<path opacity="0.7" d="M79.7134 0C79.7134 11.7855 70.1839 21.338 58.4268 21.338" stroke="#5A5AFF" stroke-width="10" stroke-miterlimit="10"/>
<path opacity="0.7" d="M58.4144 21.338C70.1716 21.338 79.701 30.8905 79.701 42.676" stroke="#5A5AFF" stroke-width="10" stroke-miterlimit="10"/>
</g>
<defs>
<clipPath id="clip0_81_28">
<rect width="101" height="135" fill="white"/>
</clipPath>
</defs>
</svg>
