<svg width="144" height="140" viewBox="0 0 144 140" fill="none" xmlns="http://www.w3.org/2000/svg">
<path opacity="0.75" d="M71.9999 43.2782C84.0616 43.2782 93.8394 33.59 93.8394 21.6391C93.8394 9.68815 84.0616 0 71.9999 0C59.9383 0 50.1604 9.68815 50.1604 21.6391C50.1604 33.59 59.9383 43.2782 71.9999 43.2782Z" fill="#5A5AFF"/>
<path opacity="0.75" d="M21.8395 127.88C33.9012 127.88 43.679 118.192 43.679 106.241C43.679 94.29 33.9012 84.6018 21.8395 84.6018C9.77789 84.6018 0 94.29 0 106.241C0 118.192 9.77789 127.88 21.8395 127.88Z" fill="#5A5AFF"/>
<path opacity="0.75" d="M122.161 127.74C134.222 127.74 144 118.052 144 106.101C144 94.1504 134.222 84.4623 122.161 84.4623C110.099 84.4623 100.321 94.1504 100.321 106.101C100.321 118.052 110.099 127.74 122.161 127.74Z" fill="#5A5AFF"/>
<path opacity="0.75" d="M71.9999 135C104.138 135 130.192 109.186 130.192 77.3423C130.192 45.4988 104.138 19.6846 71.9999 19.6846C39.8614 19.6846 13.8081 45.4988 13.8081 77.3423C13.8081 109.186 39.8614 135 71.9999 135Z" stroke="#5A5AFF" stroke-width="10" stroke-miterlimit="10"/>
</svg>
