<?xml version="1.0" encoding="UTF-8"?>
<svg xmlns="http://www.w3.org/2000/svg" width="165" height="33" viewBox="0 0 165 33" fill="none">
  <path d="M3.5918 4.37604C1.23917 10.375 1.23917 22.6109 3.5918 28.6086C3.74359 28.9905 4.31514 28.8809 4.31514 28.4708V4.51393C4.31514 4.10379 3.74359 3.99418 3.5918 4.37604Z" fill="#000"></path>
  <path d="M0.675909 8.33486C-0.225303 13.2778 -0.225303 19.7069 0.675909 24.6498C0.716226 24.8702 1.04351 24.8407 1.04351 24.6168V8.36786C1.04351 8.14393 0.717412 8.11446 0.675909 8.33486Z" fill="#000"></path>
  <path d="M17.2001 1.49443V0C15.8827 0.0365357 14.5356 0.992357 13.6605 2.09432C13.4719 2.33475 13.0854 2.20511 13.0854 1.90104V0.972321C13.0854 0.716571 12.834 0.539786 12.5897 0.61875C11.1561 1.08311 10.1422 2.90046 9.45442 4.67775C9.32636 5.00775 8.83425 4.91818 8.83425 4.56461V1.7655C8.83425 1.43668 8.43344 1.26579 8.19866 1.49796C5.04679 5.71018 4.81081 16.6909 5.56143 22.6663C6.09978 27.1036 7.0591 30.3883 8.20221 31.4655C8.44056 31.6906 8.83425 31.5209 8.83425 31.1944V28.4177C8.83425 28.0641 9.32636 27.9746 9.45442 28.3046C10.1422 30.0854 11.1549 31.9004 12.5897 32.3659C12.834 32.4449 13.0854 32.2681 13.0854 32.0124V31.0836C13.0854 30.7796 13.4719 30.6499 13.6605 30.8904C14.5451 32.0171 15.8945 32.9682 17.2001 33V31.5044C21.3943 31.6871 25.4414 30.578 28.3265 27.9145C30.4965 25.9227 31.8934 23.1141 31.8982 20.295H25.9905C25.5565 24.8455 21.6789 26.6876 17.2001 26.387V28.0076C15.8649 27.9133 14.5439 26.4978 13.6391 23.7612C13.5407 23.4642 13.0925 23.5196 13.0854 23.8319C13.0854 23.8401 13.0854 26.4354 13.0854 26.4436C13.0854 26.7547 12.7367 26.9445 12.4747 26.7736C9.2896 24.8007 9.24335 8.27239 12.4723 6.21343C12.7355 6.04254 13.0854 6.22993 13.0854 6.54225V9.14689C13.0854 9.23057 13.1126 9.29893 13.1553 9.34961C13.2941 9.51461 13.5644 9.44743 13.632 9.24354C14.538 6.49275 15.8613 5.07021 17.2001 4.97475V6.60943C21.3694 6.27943 25.7628 8.43032 25.9905 12.8394H31.8982C31.9219 11.4486 31.6183 10.0933 30.9637 8.71554C28.5554 3.7125 22.8576 1.17621 17.2001 1.49325V1.49443Z" fill="#000"></path>
  <path d="M58.9072 3.39782C56.6815 2.12379 54.049 1.48618 51.0086 1.48618C47.9682 1.48618 45.376 2.11907 43.0684 3.38368C40.7609 4.64946 38.9561 6.41025 37.6552 8.66721C36.3544 10.9242 35.7046 13.5465 35.7046 16.5318C35.7046 19.5171 36.3461 22.0617 37.628 24.3281C38.9098 26.5945 40.6956 28.3647 42.9854 29.6399C45.2752 30.9139 47.9397 31.5515 50.9801 31.5515C53.2509 31.5515 55.2621 31.2734 57.0111 30.7183C58.7602 30.1632 60.2436 29.4171 61.4615 28.479C62.6793 27.5409 63.622 26.4955 64.292 25.3381C64.9608 24.1819 65.3497 23.0128 65.46 21.8295H59.525C59.4705 22.3752 59.2677 22.9268 58.9203 23.4819C58.5716 24.0381 58.0641 24.552 57.3953 25.0246C56.7265 25.4984 55.8751 25.8755 54.8399 26.1584C53.8047 26.4412 52.5821 26.5815 51.1722 26.5815C49.1575 26.5815 47.4263 26.1714 45.9796 25.3523C44.5329 24.5331 43.4242 23.3628 42.6558 21.8436C42.1589 20.8619 41.8245 19.7552 41.649 18.526H65.7624C65.7991 18.3621 65.8264 18.0522 65.8454 17.5972C65.8632 17.1423 65.8727 16.7416 65.8727 16.3963C65.8727 13.484 65.2679 10.9077 64.0595 8.66839C62.8512 6.42911 61.133 4.67304 58.9084 3.39782H58.9072ZM41.7225 13.9107C41.917 12.8629 42.2396 11.9095 42.6973 11.0574C43.4941 9.57354 44.6112 8.42679 46.0495 7.61711C47.4867 6.80743 49.1587 6.402 51.0631 6.402C52.9675 6.402 54.5565 6.78032 55.8301 7.53579C57.1024 8.29125 58.0594 9.29304 58.7009 10.54C59.2369 11.5842 59.5464 12.7085 59.6341 13.9119H41.7225V13.9107Z" fill="#000"></path>
  <path d="M95.2699 5.11854C94.0794 4.026 92.6232 3.14796 90.9014 2.48325C89.1796 1.81854 87.21 1.48618 84.9938 1.48618C82.0624 1.48618 79.4394 2.08725 77.1224 3.28821C74.8053 4.48918 72.9827 6.20518 71.6546 8.43504C70.3265 10.6649 69.6625 13.319 69.6625 16.3951C69.6625 19.4712 70.3265 22.1477 71.6546 24.4235C72.9827 26.6994 74.8053 28.4519 77.1224 29.68C79.4394 30.9092 82.0636 31.5233 84.9938 31.5233C87.2646 31.5233 89.2662 31.1956 90.9975 30.5403C92.7288 29.885 94.1802 29.0105 95.3529 27.9192C96.5245 26.8266 97.4139 25.6115 98.0186 24.2739C98.6234 22.9362 98.9258 21.6115 98.9258 20.3009H93.0181C92.9256 21.3934 92.5876 22.4082 92.0019 23.3451C91.4149 24.2833 90.5457 25.0293 89.3919 25.5844C88.2381 26.1395 86.7547 26.4177 84.9404 26.4177C83.2554 26.4177 81.7126 26.0358 80.311 25.2709C78.9094 24.506 77.7924 23.3829 76.9587 21.8979C76.1251 20.414 75.7089 18.5802 75.7089 16.3951C75.7089 14.21 76.1299 12.3903 76.973 10.9336C77.8149 9.47689 78.9378 8.39025 80.3383 7.67014C81.7399 6.95121 83.2731 6.59175 84.9404 6.59175C86.4606 6.59175 87.7887 6.83807 88.9247 7.32954C90.0607 7.821 90.9761 8.48571 91.6722 9.3225C92.3683 10.1605 92.7892 11.1163 92.9363 12.19C92.9541 12.2996 92.973 12.4127 92.9908 12.5318C93.0086 12.6508 93.0181 12.7545 93.0181 12.8464H98.9258V12.6555C98.9258 11.3449 98.6139 10.0344 97.9914 8.72261C97.3688 7.41204 96.4617 6.20989 95.2711 5.11854H95.2699Z" fill="#000"></path>
  <path d="M128.295 5.11854C127.104 4.026 125.648 3.14796 123.926 2.48325C122.204 1.81854 120.235 1.48618 118.02 1.48618C115.088 1.48618 112.465 2.08725 110.148 3.28821C107.831 4.48918 106.009 6.20518 104.68 8.43504C103.352 10.6649 102.688 13.319 102.688 16.3951C102.688 19.4712 103.352 22.1477 104.68 24.4235C106.009 26.6994 107.831 28.4519 110.148 29.68C112.465 30.9092 115.089 31.5233 118.02 31.5233C120.29 31.5233 122.292 31.1956 124.022 30.5403C125.753 29.885 127.205 29.0105 128.378 27.9192C129.549 26.8266 130.439 25.6115 131.043 24.2739C131.648 22.9362 131.95 21.6115 131.95 20.3009H126.043C125.95 21.3934 125.612 22.4082 125.027 23.3451C124.44 24.2833 123.57 25.0293 122.417 25.5844C121.263 26.1395 119.779 26.4177 117.965 26.4177C116.28 26.4177 114.737 26.0358 113.336 25.2709C111.934 24.506 110.817 23.3829 109.983 21.8979C109.15 20.414 108.734 18.5802 108.734 16.3951C108.734 14.21 109.155 12.3903 109.998 10.9336C110.84 9.47689 111.963 8.39025 113.363 7.67014C114.765 6.95121 116.298 6.59175 117.965 6.59175C119.485 6.59175 120.813 6.83807 121.949 7.32954C123.085 7.821 124.001 8.48571 124.697 9.3225C125.393 10.1605 125.814 11.1163 125.961 12.19C125.979 12.2996 125.998 12.4127 126.015 12.5318C126.033 12.6508 126.043 12.7545 126.043 12.8464H131.95V12.6555C131.95 11.3449 131.639 10.0344 131.016 8.72261C130.393 7.41204 129.486 6.20989 128.296 5.11854H128.295Z" fill="#000"></path>
  <path d="M164.438 30.1868C164.209 29.8226 164.012 29.3582 163.847 28.7937C163.7 28.3022 163.601 27.7424 163.545 27.1142C163.49 26.486 163.463 25.8355 163.463 25.1613V11.3166C163.463 9.15043 162.868 7.33896 161.677 5.88225C160.487 4.42554 158.888 3.32946 156.883 2.59168C154.878 1.85389 152.656 1.48618 150.22 1.48618C147.564 1.48618 145.21 1.89161 143.159 2.70129C141.107 3.51214 139.499 4.69071 138.337 6.23818C137.174 7.78564 136.593 9.67018 136.593 11.8906H142.445C142.445 10.0155 143.117 8.646 144.464 7.78093C145.81 6.91704 147.72 6.48332 150.193 6.48332C152.537 6.48332 154.342 6.86518 155.606 7.63007C156.87 8.39496 157.502 9.51461 157.502 10.989V11.0432C157.502 11.7904 156.792 12.3267 155.372 12.6543C153.953 12.982 151.513 13.319 148.05 13.6644C145.724 13.8824 143.65 14.3432 141.827 15.0433C140.004 15.7445 138.576 16.7322 137.54 18.0062C136.505 19.2803 135.988 20.8914 135.988 22.8395C135.988 24.6604 136.446 26.2161 137.361 27.509C138.277 28.8019 139.563 29.7943 141.221 30.4861C142.879 31.1779 144.807 31.5233 147.004 31.5233C148.891 31.5233 150.608 31.3052 152.155 30.868C153.703 30.4307 155.031 29.8214 156.14 29.0388C156.737 28.6169 157.25 28.1537 157.685 27.6528C157.765 28.1573 157.877 28.6122 158.022 29.0117C158.186 29.4855 158.374 29.8992 158.585 30.2539C158.795 30.6087 158.956 30.8409 159.065 30.9505H165C164.853 30.8043 164.666 30.5497 164.437 30.1856L164.438 30.1868ZM157.528 19.1812C157.528 20.856 157.107 22.2444 156.264 23.3451C155.421 24.4471 154.299 25.2662 152.899 25.8025C151.497 26.3399 149.945 26.6086 148.242 26.6086C146.117 26.6086 144.538 26.2586 143.503 25.5573C142.467 24.8573 141.95 23.8048 141.95 22.4035C141.95 21.0021 142.573 19.9049 143.819 19.2767C145.064 18.6485 146.924 18.2254 149.396 18.0074C151.19 17.8259 152.936 17.5937 154.63 17.3109C155.701 17.1329 156.666 16.9196 157.528 16.6721V19.1812Z" fill="#000"></path>
</svg>
