<?xml version="1.0" encoding="UTF-8"?> <svg xmlns="http://www.w3.org/2000/svg" xmlns:xlink="http://www.w3.org/1999/xlink" version="1.1" id="Calque_2" x="0px" y="0px" width="250px" height="57.444px" viewBox="0 0 250 57.444" xml:space="preserve"> <g> <rect fill="#365263" width="65.783" height="57.444"></rect> <g> <g> <path fill="#FFFFFF" d="M30.399,32.401l-1.292-1.903c-0.027-0.046-0.073-0.069-0.135-0.069c-0.036,0-0.074,0.015-0.109,0.04 l-0.3,0.218c-0.208,0.155-0.376,0.382-0.508,0.686c-0.13,0.304-0.196,0.649-0.196,1.038c0,0.567,0.135,1.025,0.406,1.367 c0.271,0.344,0.624,0.515,1.058,0.515c0.326,0,0.641-0.147,0.944-0.399c0,0.005,0,0.014-0.002,0.02 c0.029-0.021,0.06-0.055,0.088-0.08h0.001l0,0c0.054-0.047,0.108-0.091,0.162-0.147l0.311-0.34 c0.036-0.036,0.054-0.091,0.054-0.162c0-0.026-0.018-0.077-0.054-0.15L30.399,32.401z"></path> <path fill="#FFFFFF" d="M29.099,27.671c0.005,0.168,0.031,0.334,0.082,0.509c0.058,0.198,0.151,0.389,0.278,0.568l0.063,0.092 l0.018,0.025l0.231,0.333c0.055,0.089,0.121,0.133,0.203,0.133c0.063,0,0.118-0.021,0.163-0.067l0.216-0.175 c0.153-0.127,0.277-0.284,0.367-0.47c0.089-0.182,0.133-0.376,0.135-0.583c0-0.001,0-0.005,0-0.005 c0-0.007-0.002-0.014-0.002-0.022c-0.002-0.198-0.025-0.373-0.062-0.529c-0.014-0.062-0.037-0.114-0.057-0.171 c-0.02-0.058-0.032-0.124-0.058-0.174l-0.019,0.007c-0.03-0.062-0.048-0.136-0.088-0.19c-0.19-0.256-0.416-0.386-0.678-0.386 c-0.234,0-0.425,0.094-0.575,0.28c-0.148,0.184-0.224,0.435-0.224,0.75c0,0.024,0.01,0.05,0.011,0.073L29.099,27.671z"></path> <path fill="#FFFFFF" d="M59.465,43.506l-0.581-0.445c-0.133-0.135-0.223-0.09-0.355,0.133c-2.049,2.895-5.969,5.656-11.002,5.656 c-2.986,0-5.524-0.354-8.554-3.741c-3.475-3.831-4.277-8.864-4.277-11.447c-0.043-6.503,3.164-13.585,11.137-13.585 c3.518,0,5.879,1.512,7.751,3.428c1.87,1.917,2.851,4.054,3.474,5.525c0.134,0.356,0.223,0.4,0.447,0.356l0.667-0.179 c0.178-0.046,0.222-0.224,0.178-0.445c-0.223-1.248-1.114-7.795-1.114-8.641c0-0.625-0.089-0.714-0.49-0.714 c-0.4,0-0.491,0-0.58,0.266l-0.356,1.294c-0.088,0.312-0.311,0.355-0.891,0c-1.604-0.937-4.944-2.452-8.998-2.452 c-2.847,0-5.391,0.733-7.476,1.812c0.121-0.82,0.191-1.706,0.191-2.682c0-2.149-1.101-4.764-3.018-6.622 c-2.207-2.093-6.041-3.544-10.863-3.544c-1.045,0-6.446,0.174-9.701,0.174c-4.88,0-6.578-0.174-7.101-0.174 c-0.291,0-0.244,0.114-0.244,0.406v1.454c0,0.232-0.149,0.317,0.141,0.317h2.324c1.452,0,2.101,1.032,2.16,2.95 c0.058,1.684,0.009,5.448,0.009,9.745v5.636c0,5.521,0.049,10.992-0.068,16.743c0,1.568-0.938,1.989-2.216,1.989H7.68 c-0.291,0-0.433,0.148-0.433,0.439v1.338c0,0.289,0.072,0.464,0.536,0.464c0.64,0,2.009-0.175,7.297-0.175 c5.519,0,7.27,0.175,7.909,0.175c0.581,0,0.936-0.118,0.936-0.523v-1.278c0-0.291-0.618-0.439-1.025-0.439h-3.66 c-0.872,0-1.221-1.058-1.337-2.28c-0.059-0.87,0-7.388,0-10.816v-3.252c0.463-0.175,1.279-0.175,1.802-0.175 c3.37,0,4.706,1.569,6.216,3.368c0.696,0.815,3.457,4.996,3.687,5.404c0.226,0.359,2.136,3.733,3.212,5.569h0.022 c0.614,1.027,1.331,1.966,2.167,2.755c2.674,2.449,6.014,4.098,11.27,4.098c6.282,0,10.602-3.608,13.274-7.482 C59.687,43.682,59.598,43.595,59.465,43.506z M20.402,28.335c-1.105,0-2.036-0.057-2.499-0.231V11.662 c0-0.929,0.175-1.568,0.581-1.859c0.522-0.349,1.221-0.464,1.918-0.464c4.821,0,7.349,0.87,9.615,2.672 c1.685,1.394,2.948,3.95,2.948,6.621C32.965,21.073,30.975,28.335,20.402,28.335z M34.284,29.989 c-0.027,0.023-0.066,0.043-0.121,0.062c-0.053,0.018-0.115,0.038-0.185,0.062c-0.066,0.021-0.142,0.052-0.222,0.087 c-0.372,0.182-0.824,0.704-1.356,1.573l-0.244,0.407c-0.055,0.098-0.082,0.167-0.082,0.202c0,0.063,0.015,0.114,0.04,0.148 l0.76,1.085c0.2,0.288,0.384,0.498,0.555,0.622c0.172,0.127,0.319,0.219,0.441,0.273c0.122,0.055,0.22,0.094,0.292,0.116 c0.072,0.02,0.108,0.065,0.108,0.127c0,0.146-0.095,0.216-0.286,0.216c-0.116,0-0.29-0.015-0.521-0.045 c-0.229-0.031-0.528-0.049-0.888-0.049c-0.29,0-0.536,0.018-0.738,0.049c-0.204,0.03-0.356,0.045-0.455,0.045 c-0.054,0-0.102-0.016-0.144-0.055c-0.04-0.034-0.06-0.079-0.06-0.134c0-0.063,0.027-0.105,0.08-0.129 c0.055-0.021,0.114-0.04,0.176-0.054c0.064-0.014,0.124-0.039,0.176-0.074c0.055-0.036,0.084-0.1,0.084-0.19 c0-0.053-0.029-0.122-0.084-0.203l-0.257-0.392c-0.017-0.028-0.038-0.05-0.061-0.062c-0.021-0.015-0.043-0.021-0.06-0.021 c-0.018,0-0.064,0.037-0.137,0.109l-0.189,0.203c-0.218,0.238-0.427,0.435-0.632,0.604c-0.152,0.125-0.301,0.238-0.444,0.323 c-0.341,0.206-0.737,0.306-1.188,0.306c-0.29,0-0.554-0.061-0.792-0.182c-0.24-0.124-0.449-0.29-0.626-0.5 c-0.176-0.215-0.313-0.464-0.412-0.754s-0.149-0.601-0.149-0.936c0-0.714,0.25-1.313,0.719-1.803 c0.057-0.061,0.108-0.12,0.172-0.177c0.169-0.149,0.355-0.293,0.573-0.422l0.42-0.254c0.029-0.017,0.044-0.035,0.065-0.052 c0.05-0.04,0.084-0.081,0.084-0.127c0-0.035-0.019-0.09-0.053-0.162l-0.191-0.339c-0.134-0.235-0.241-0.466-0.318-0.692 c-0.077-0.225-0.115-0.47-0.115-0.732c0-0.011,0.002-0.023,0.002-0.035l-0.02,0.007c0.003-0.251,0.061-0.487,0.156-0.711 c0.1-0.227,0.242-0.429,0.418-0.594c0.176-0.167,0.386-0.3,0.627-0.4c0.239-0.098,0.5-0.149,0.78-0.149 c0.28,0,0.538,0.042,0.772,0.127c0.236,0.087,0.436,0.208,0.597,0.36c0.164,0.152,0.29,0.333,0.38,0.536 c0.03,0.066,0.047,0.135,0.064,0.204c0.002,0.007,0.005,0.015,0.007,0.02v0.003c0.039,0.136,0.064,0.279,0.064,0.431 c0,0.351-0.102,0.654-0.306,0.905c-0.107,0.137-0.254,0.269-0.429,0.397c-0.151,0.113-0.323,0.226-0.525,0.337l-0.273,0.148 c-0.071,0.046-0.107,0.092-0.107,0.138c0,0.034,0.013,0.072,0.042,0.106l0.463,0.669v0.002l0.462,0.665l0.284,0.409l0,0l0.2,0.29 c0.027,0.034,0.059,0.055,0.094,0.055c0.036,0,0.067-0.024,0.095-0.07l0.406-0.69c0.217-0.38,0.326-0.651,0.326-0.813 c0-0.118-0.042-0.198-0.122-0.24c-0.082-0.04-0.17-0.065-0.265-0.079c-0.092-0.014-0.175-0.031-0.255-0.053 c-0.004-0.002-0.006-0.002-0.009-0.002c-0.042-0.012-0.042-0.048-0.062-0.072c-0.02-0.022-0.06-0.033-0.06-0.07 c0-0.059,0.024-0.098,0.06-0.129c0.045-0.038,0.113-0.062,0.211-0.062c0.009,0,0.022,0,0.033,0 c0.083,0.003,0.211,0.019,0.395,0.04c0.203,0.028,0.467,0.044,0.792,0.044c0.216,0,0.395-0.012,0.535-0.03 c0.14-0.016,0.237-0.024,0.291-0.024c0.118,0,0.178,0.048,0.178,0.146C34.326,29.933,34.311,29.967,34.284,29.989z"></path> </g> </g> <path fill="#365263" d="M32.401,31.772c0.532-0.869,0.984-1.392,1.356-1.573c0.08-0.035,0.155-0.065,0.222-0.087 c0.069-0.023,0.131-0.044,0.185-0.062c0.055-0.019,0.094-0.038,0.121-0.062c0.027-0.022,0.042-0.057,0.042-0.103 c0-0.099-0.06-0.146-0.178-0.146c-0.054,0-0.151,0.009-0.291,0.024c-0.141,0.019-0.319,0.03-0.535,0.03 c-0.326,0-0.59-0.016-0.792-0.044c-0.184-0.021-0.311-0.037-0.395-0.04c-0.011,0-0.024,0-0.033,0c-0.098,0-0.166,0.023-0.211,0.062 c-0.036,0.031-0.06,0.07-0.06,0.129c0,0.037,0.04,0.048,0.06,0.07c0.02,0.024,0.02,0.061,0.062,0.072c0.003,0,0.005,0,0.009,0.002 c0.08,0.021,0.164,0.039,0.255,0.053c0.095,0.014,0.183,0.039,0.265,0.079c0.08,0.042,0.122,0.122,0.122,0.24 c0,0.161-0.109,0.433-0.326,0.813l-0.406,0.69c-0.027,0.046-0.059,0.07-0.095,0.07c-0.035,0-0.067-0.021-0.094-0.055l-0.2-0.29l0,0 l-0.284-0.409l-0.462-0.665V30.57l-0.463-0.669c-0.029-0.034-0.042-0.072-0.042-0.106c0-0.046,0.036-0.092,0.107-0.138l0.273-0.148 c0.202-0.111,0.374-0.224,0.525-0.337c0.175-0.129,0.322-0.261,0.429-0.397c0.204-0.251,0.306-0.555,0.306-0.905 c0-0.152-0.025-0.295-0.064-0.431v-0.003c-0.001-0.005-0.004-0.013-0.007-0.02c-0.018-0.069-0.035-0.138-0.064-0.204 c-0.09-0.203-0.216-0.383-0.38-0.536c-0.162-0.153-0.361-0.273-0.597-0.36c-0.234-0.085-0.493-0.127-0.772-0.127 c-0.28,0-0.541,0.051-0.78,0.149c-0.241,0.1-0.451,0.232-0.627,0.4c-0.176,0.166-0.318,0.367-0.418,0.594 c-0.095,0.224-0.153,0.46-0.156,0.711l0.02-0.007c0,0.012-0.002,0.024-0.002,0.035c0,0.263,0.039,0.508,0.115,0.732 c0.077,0.227,0.184,0.457,0.318,0.692l0.191,0.339c0.035,0.072,0.053,0.127,0.053,0.162c0,0.046-0.034,0.087-0.084,0.127 c-0.021,0.017-0.037,0.035-0.065,0.052l-0.42,0.254c-0.217,0.129-0.404,0.272-0.573,0.422c-0.064,0.057-0.116,0.116-0.172,0.177 c-0.469,0.49-0.719,1.089-0.719,1.803c0,0.335,0.05,0.646,0.149,0.936s0.236,0.539,0.412,0.754c0.177,0.21,0.386,0.376,0.626,0.5 c0.238,0.121,0.502,0.182,0.792,0.182c0.451,0,0.847-0.1,1.188-0.306c0.143-0.085,0.292-0.198,0.444-0.323 c0.205-0.169,0.414-0.365,0.632-0.604l0.189-0.203c0.073-0.072,0.119-0.109,0.137-0.109c0.016,0,0.038,0.007,0.06,0.021 c0.023,0.012,0.044,0.033,0.061,0.062l0.257,0.392c0.055,0.081,0.084,0.15,0.084,0.203c0,0.091-0.029,0.154-0.084,0.19 c-0.053,0.035-0.112,0.061-0.176,0.074c-0.063,0.014-0.121,0.032-0.176,0.054c-0.053,0.023-0.08,0.066-0.08,0.129 c0,0.055,0.02,0.1,0.06,0.134c0.042,0.039,0.089,0.055,0.144,0.055c0.098,0,0.251-0.015,0.455-0.045 c0.202-0.031,0.448-0.049,0.738-0.049c0.36,0,0.658,0.018,0.888,0.049c0.231,0.03,0.405,0.045,0.521,0.045 c0.191,0,0.286-0.07,0.286-0.216c0-0.062-0.037-0.107-0.108-0.127c-0.072-0.022-0.17-0.062-0.292-0.116 c-0.122-0.055-0.27-0.146-0.441-0.273c-0.171-0.124-0.355-0.334-0.555-0.622l-0.76-1.085c-0.025-0.034-0.04-0.085-0.04-0.148 c0-0.035,0.027-0.104,0.082-0.202L32.401,31.772z M29.316,26.846c0.15-0.186,0.341-0.28,0.575-0.28 c0.263,0,0.488,0.129,0.678,0.386c0.04,0.054,0.059,0.129,0.088,0.19l0.019-0.007c0.026,0.051,0.038,0.116,0.058,0.174 c0.02,0.057,0.043,0.109,0.057,0.171c0.037,0.156,0.06,0.331,0.062,0.529c0,0.009,0.002,0.016,0.002,0.022c0,0,0,0.004,0,0.005 c-0.002,0.207-0.046,0.401-0.135,0.583c-0.09,0.186-0.214,0.343-0.367,0.47l-0.216,0.175c-0.045,0.046-0.1,0.067-0.163,0.067 c-0.083,0-0.148-0.044-0.203-0.133l-0.231-0.333l-0.018-0.025l-0.063-0.092c-0.127-0.18-0.22-0.37-0.278-0.568 c-0.05-0.175-0.076-0.341-0.082-0.509l0.005-0.002c-0.001-0.023-0.011-0.049-0.011-0.073C29.093,27.28,29.168,27.029,29.316,26.846 z M30.828,33.345l-0.311,0.34c-0.054,0.057-0.107,0.101-0.162,0.147l0,0h-0.001c-0.029,0.025-0.059,0.059-0.088,0.08 c0.002-0.006,0.002-0.015,0.002-0.02c-0.304,0.252-0.618,0.399-0.944,0.399c-0.435,0-0.787-0.171-1.058-0.515 c-0.271-0.342-0.406-0.8-0.406-1.367c0-0.389,0.066-0.734,0.196-1.038c0.131-0.304,0.3-0.53,0.508-0.686l0.3-0.218 c0.035-0.025,0.073-0.04,0.109-0.04c0.062,0,0.107,0.023,0.135,0.069l1.292,1.903l0.429,0.631c0.036,0.073,0.054,0.124,0.054,0.15 C30.882,33.254,30.864,33.309,30.828,33.345z"></path> </g> <g> <g> <g> <path fill="#365263" d="M83.525,25.738h0.116v0.233H80.36v-0.233h0.117c0.108,0,0.21-0.045,0.303-0.14 c0.093-0.093,0.174-0.2,0.244-0.326c0.071-0.124,0.12-0.26,0.152-0.407c0.031-0.147,0.046-0.282,0.046-0.407V12.056 c0-0.108-0.015-0.233-0.046-0.372c-0.032-0.141-0.081-0.272-0.152-0.396c-0.069-0.124-0.151-0.229-0.244-0.314 c-0.093-0.085-0.194-0.128-0.303-0.128H80.36v-0.232h4.05c1.551,0,2.749,0.303,3.594,0.907c0.845,0.605,1.269,1.498,1.269,2.676 c0,0.59-0.097,1.104-0.291,1.548c-0.195,0.442-0.455,0.822-0.78,1.14s-0.709,0.574-1.152,0.767 c-0.442,0.195-0.912,0.338-1.408,0.431l1.676,2.56c0.403,0.621,0.814,1.229,1.233,1.827c0.419,0.597,0.83,1.215,1.233,1.849 c0.108,0.157,0.229,0.318,0.361,0.489c0.131,0.17,0.271,0.325,0.418,0.465c0.147,0.14,0.304,0.252,0.465,0.338 c0.164,0.086,0.33,0.127,0.5,0.127v0.233h-1.001c-0.62,0-1.129-0.151-1.523-0.453c-0.396-0.304-0.726-0.656-0.989-1.06 c-0.698-1.023-1.392-2.063-2.083-3.118c-0.691-1.054-1.376-2.094-2.06-3.118c-0.17-0.017-0.352-0.035-0.546-0.058 c-0.193-0.024-0.376-0.051-0.545-0.082v6.376c0,0.125,0.014,0.26,0.045,0.407s0.082,0.284,0.152,0.407 c0.07,0.125,0.147,0.233,0.233,0.326C83.295,25.693,83.401,25.738,83.525,25.738z M82.782,11.404v5.911h0.116 c0.124,0.015,0.322,0.027,0.593,0.034c0.271,0.008,0.609,0.011,1.013,0.011c0.326,0,0.671-0.049,1.036-0.151 c0.364-0.1,0.706-0.271,1.024-0.513c0.317-0.24,0.582-0.554,0.791-0.942c0.209-0.387,0.315-0.876,0.315-1.465 s-0.113-1.07-0.338-1.442c-0.226-0.373-0.535-0.667-0.931-0.884c-0.396-0.217-0.872-0.365-1.431-0.443 c-0.558-0.077-1.171-0.116-1.838-0.116H82.782z"></path> <path fill="#365263" d="M96.395,26.135c-0.776,0-1.475-0.129-2.094-0.383c-0.622-0.257-1.153-0.606-1.594-1.048 c-0.442-0.443-0.784-0.967-1.024-1.57c-0.242-0.605-0.362-1.266-0.362-1.978c0-0.76,0.133-1.455,0.396-2.083 c0.264-0.629,0.628-1.167,1.093-1.618c0.465-0.449,1.016-0.798,1.652-1.047c0.636-0.247,1.327-0.371,2.072-0.371 s1.427,0.12,2.048,0.36c0.62,0.24,1.155,0.578,1.605,1.013s0.799,0.951,1.047,1.547c0.248,0.598,0.373,1.252,0.373,1.967 c0,0.667-0.112,1.315-0.338,1.942c-0.225,0.629-0.558,1.184-1,1.665c-0.442,0.48-0.986,0.869-1.629,1.164 S97.248,26.135,96.395,26.135z M96.244,16.803c-0.558,0.031-1.048,0.167-1.473,0.407c-0.425,0.24-0.782,0.551-1.067,0.931 c-0.287,0.38-0.503,0.811-0.65,1.291c-0.146,0.481-0.221,0.971-0.221,1.467c0,0.574,0.089,1.129,0.268,1.663 c0.178,0.535,0.433,1.013,0.765,1.431c0.333,0.42,0.731,0.752,1.194,1.001c0.463,0.248,0.982,0.371,1.555,0.371 s1.078-0.124,1.52-0.371c0.439-0.249,0.807-0.571,1.102-0.967c0.293-0.395,0.515-0.839,0.661-1.338 c0.146-0.496,0.221-0.993,0.221-1.489c0-0.511-0.079-1.027-0.233-1.547c-0.155-0.52-0.395-0.993-0.719-1.42 c-0.324-0.425-0.729-0.771-1.217-1.035C97.462,16.936,96.893,16.803,96.244,16.803z"></path> <path fill="#365263" d="M112.264,25.133c-0.124,0-0.24,0.027-0.35,0.082c-0.108,0.055-0.232,0.12-0.372,0.198 c-0.265,0.154-0.597,0.314-1.001,0.476c-0.403,0.164-0.93,0.246-1.583,0.246c-0.791,0-1.524-0.129-2.199-0.383 c-0.674-0.257-1.256-0.613-1.745-1.071c-0.489-0.458-0.869-0.993-1.14-1.605c-0.272-0.613-0.408-1.276-0.408-1.991 c0-0.667,0.12-1.304,0.36-1.907c0.241-0.605,0.585-1.142,1.037-1.607c0.449-0.466,1.003-0.837,1.664-1.117 c0.659-0.28,1.408-0.418,2.245-0.418c0.574,0,1.04,0.065,1.396,0.196c0.357,0.133,0.66,0.26,0.908,0.385 c0.139,0.077,0.275,0.138,0.407,0.186s0.268,0.069,0.407,0.069v1.769h-0.232c-0.079-0.295-0.217-0.555-0.419-0.78 c-0.201-0.224-0.434-0.414-0.698-0.569c-0.263-0.154-0.551-0.271-0.86-0.349c-0.311-0.079-0.614-0.117-0.908-0.117 c-0.637,0-1.194,0.113-1.676,0.336c-0.48,0.226-0.875,0.52-1.186,0.885c-0.312,0.364-0.544,0.78-0.698,1.246 c-0.155,0.465-0.233,0.945-0.233,1.441c0,0.575,0.093,1.137,0.279,1.688c0.187,0.551,0.454,1.043,0.803,1.478 c0.349,0.434,0.772,0.784,1.268,1.047c0.497,0.264,1.056,0.396,1.676,0.396c0.434,0,0.834-0.062,1.199-0.188 c0.364-0.124,0.674-0.287,0.931-0.489c0.255-0.2,0.46-0.422,0.616-0.662c0.155-0.241,0.248-0.469,0.279-0.687h0.233V25.133z"></path> <path fill="#365263" d="M123.177,24.458c0,0.125,0.017,0.26,0.047,0.407c0.031,0.147,0.082,0.284,0.151,0.407 c0.07,0.125,0.147,0.233,0.232,0.326c0.086,0.094,0.19,0.14,0.315,0.14v0.233h-3.002v-0.233c0.108,0,0.209-0.045,0.302-0.14 c0.093-0.093,0.174-0.2,0.244-0.326c0.07-0.124,0.12-0.26,0.152-0.407c0.031-0.147,0.046-0.282,0.046-0.407v-4.329 c0-0.558-0.078-1.047-0.233-1.465c-0.154-0.417-0.364-0.767-0.627-1.047c-0.265-0.28-0.564-0.485-0.896-0.616 c-0.334-0.132-0.671-0.198-1.013-0.198s-0.678,0.066-1.013,0.198c-0.333,0.131-0.627,0.314-0.883,0.547 c-0.257,0.232-0.465,0.515-0.629,0.849c-0.162,0.333-0.244,0.702-0.244,1.105v4.956c0,0.125,0.015,0.26,0.047,0.407 c0.031,0.147,0.081,0.284,0.152,0.407c0.069,0.125,0.147,0.233,0.232,0.326c0.084,0.094,0.189,0.14,0.314,0.14v0.233h-3.025 v-0.233c0.108,0,0.209-0.045,0.302-0.14c0.093-0.093,0.175-0.2,0.244-0.326c0.071-0.124,0.12-0.26,0.152-0.407 c0.031-0.147,0.046-0.282,0.046-0.407V12.568c0-0.264-0.038-0.512-0.116-0.745c-0.078-0.232-0.302-0.356-0.674-0.372v-0.233 l2.327-0.722v6.724c0.108-0.124,0.248-0.258,0.418-0.407c0.171-0.147,0.376-0.286,0.617-0.418 c0.241-0.131,0.519-0.24,0.837-0.326c0.318-0.085,0.694-0.129,1.129-0.129c0.729,0,1.35,0.125,1.862,0.373 c0.512,0.25,0.931,0.571,1.256,0.966c0.326,0.396,0.563,0.831,0.711,1.303c0.147,0.475,0.22,0.935,0.22,1.385V24.458z"></path> <path fill="#365263" d="M127.482,21.271c0.062,0.542,0.195,1.058,0.396,1.547c0.202,0.489,0.469,0.918,0.802,1.291 c0.335,0.373,0.742,0.671,1.222,0.896c0.481,0.226,1.039,0.338,1.676,0.338c0.341,0,0.702-0.051,1.082-0.153 c0.379-0.1,0.733-0.244,1.06-0.429c0.324-0.187,0.616-0.416,0.872-0.687c0.254-0.271,0.429-0.579,0.523-0.92h0.209V24.9 c-0.092,0-0.198,0.033-0.314,0.094c-0.116,0.062-0.252,0.138-0.407,0.232c-0.311,0.186-0.729,0.384-1.256,0.593 c-0.527,0.209-1.226,0.314-2.094,0.314c-0.699,0-1.362-0.102-1.991-0.304c-0.627-0.2-1.182-0.511-1.664-0.931 c-0.48-0.418-0.864-0.953-1.151-1.605c-0.287-0.651-0.431-1.427-0.431-2.327c0-0.573,0.096-1.154,0.291-1.745 c0.193-0.589,0.489-1.12,0.884-1.595c0.396-0.473,0.903-0.856,1.525-1.15c0.62-0.295,1.363-0.442,2.233-0.442 c0.776,0,1.454,0.131,2.036,0.395c0.582,0.264,1.063,0.629,1.443,1.094c0.381,0.465,0.664,1.016,0.849,1.653 c0.188,0.636,0.281,1.334,0.281,2.094H127.482z M130.856,16.803c-0.543,0-1.012,0.109-1.407,0.326 c-0.396,0.218-0.732,0.496-1.012,0.838c-0.28,0.342-0.497,0.729-0.651,1.164c-0.156,0.435-0.256,0.869-0.304,1.303h6.632 c-0.015-0.45-0.096-0.893-0.243-1.327c-0.147-0.435-0.353-0.822-0.616-1.164c-0.266-0.34-0.598-0.616-1.002-0.825 C131.85,16.908,131.384,16.803,130.856,16.803z"></path> <path fill="#AF8729" d="M157.361,24.249c0.327,0.28,0.637,0.528,0.931,0.746c0.264,0.186,0.535,0.356,0.815,0.511 c0.279,0.156,0.526,0.232,0.745,0.232v0.233h-1.304c-0.59,0-1.108-0.113-1.56-0.336c-0.449-0.226-0.877-0.493-1.279-0.803 l-2.305-1.815c-0.837,1.133-1.703,1.942-2.594,2.431c-0.894,0.489-1.882,0.732-2.968,0.732c-0.697,0-1.321-0.104-1.873-0.313 c-0.551-0.21-1.017-0.489-1.396-0.838c-0.381-0.349-0.671-0.756-0.874-1.222c-0.201-0.465-0.303-0.947-0.303-1.443 c0-1.071,0.272-1.981,0.815-2.734c0.544-0.753,1.451-1.431,2.723-2.037c-0.745-0.62-1.318-1.232-1.723-1.838 c-0.402-0.605-0.604-1.232-0.604-1.884c0-0.45,0.086-0.876,0.256-1.28c0.171-0.404,0.411-0.756,0.722-1.059 c0.31-0.303,0.671-0.543,1.082-0.721s0.864-0.268,1.361-0.268c0.589,0,1.109,0.101,1.56,0.303 c0.449,0.202,0.829,0.465,1.14,0.791c0.312,0.327,0.543,0.703,0.698,1.129c0.155,0.427,0.232,0.857,0.232,1.292 c0,0.573-0.178,1.171-0.534,1.791c-0.357,0.622-0.979,1.188-1.861,1.7c0.712,0.589,1.449,1.202,2.21,1.838 c0.76,0.636,1.514,1.249,2.258,1.838c0.31-0.62,0.562-1.241,0.756-1.862c0.193-0.62,0.349-1.191,0.466-1.71 c0.116-0.52,0.193-0.973,0.232-1.361c0.038-0.388,0.059-0.666,0.059-0.837c0-0.201-0.079-0.385-0.233-0.547 c-0.155-0.163-0.327-0.245-0.512-0.245V14.43h2.396v0.231c-0.155,0-0.314,0.075-0.477,0.222c-0.164,0.147-0.26,0.329-0.291,0.547 c-0.093,0.807-0.226,1.591-0.396,2.351c-0.141,0.651-0.326,1.334-0.56,2.047c-0.231,0.714-0.52,1.334-0.86,1.862 c0.31,0.294,0.644,0.589,1.001,0.883c0.356,0.296,0.705,0.582,1.047,0.862L157.361,24.249z M148.519,25.366 c0.761,0,1.517-0.264,2.27-0.791c0.752-0.527,1.438-1.209,2.059-2.047c-0.854-0.714-1.721-1.44-2.605-2.176 s-1.753-1.455-2.605-2.153c-0.948,0.451-1.646,1.009-2.095,1.676c-0.451,0.667-0.676,1.342-0.676,2.023 c0,0.42,0.094,0.831,0.279,1.235c0.187,0.403,0.442,0.767,0.769,1.093c0.326,0.325,0.713,0.594,1.163,0.803 S148.007,25.351,148.519,25.366z M146.053,13.801c0.108,0.543,0.411,1.078,0.907,1.605c0.496,0.527,1.032,1.033,1.605,1.512 c0.605-0.247,1.07-0.623,1.396-1.129c0.325-0.503,0.488-0.996,0.488-1.477c0-0.372-0.058-0.736-0.175-1.093 c-0.116-0.357-0.287-0.678-0.511-0.966c-0.227-0.287-0.513-0.52-0.861-0.698c-0.349-0.178-0.757-0.268-1.222-0.268 c-0.512,0-0.919,0.202-1.222,0.605c-0.303,0.403-0.454,0.884-0.454,1.442c0,0.078,0,0.155,0,0.232 C146.006,13.647,146.021,13.724,146.053,13.801z"></path> <path fill="#365263" d="M175.63,11.219c-1.148,0-2.146,0.206-2.99,0.617c-0.846,0.411-1.548,0.946-2.106,1.605 c-0.559,0.66-0.974,1.401-1.244,2.223c-0.272,0.822-0.407,1.636-0.407,2.443c0,0.914,0.178,1.811,0.534,2.687 c0.357,0.876,0.85,1.652,1.478,2.327c0.628,0.675,1.361,1.218,2.199,1.629c0.838,0.411,1.746,0.616,2.723,0.616 c0.279,0,0.609-0.031,0.989-0.093c0.38-0.062,0.756-0.182,1.128-0.36c0.373-0.179,0.718-0.431,1.036-0.757 c0.317-0.325,0.563-0.752,0.733-1.28h0.232v2.583c-0.232,0-0.478,0.031-0.733,0.093c-0.255,0.062-0.539,0.131-0.849,0.209 c-0.404,0.109-0.851,0.209-1.339,0.302c-0.488,0.094-1.004,0.14-1.547,0.14c-1.35,0-2.537-0.232-3.56-0.698 c-1.025-0.466-1.877-1.071-2.557-1.814c-0.68-0.746-1.188-1.587-1.524-2.525c-0.337-0.938-0.505-1.889-0.505-2.851 s0.168-1.917,0.505-2.862c0.336-0.946,0.853-1.795,1.548-2.547c0.694-0.753,1.57-1.362,2.625-1.827 c1.055-0.465,2.297-0.698,3.724-0.698c0.511,0,0.974,0.046,1.385,0.14c0.41,0.093,0.78,0.185,1.105,0.279 c0.232,0.077,0.445,0.135,0.639,0.174c0.193,0.04,0.386,0.058,0.571,0.058v2.583h-0.233c-0.093-0.48-0.263-0.88-0.513-1.198 c-0.248-0.318-0.538-0.562-0.872-0.732c-0.333-0.171-0.689-0.292-1.069-0.361C176.354,11.253,175.985,11.219,175.63,11.219z"></path> <path fill="#365263" d="M182.284,25.971v-0.233c0.124,0,0.231-0.045,0.326-0.14c0.092-0.093,0.17-0.2,0.232-0.326 c0.063-0.124,0.107-0.26,0.139-0.407s0.048-0.282,0.048-0.407v-6.445c0-0.264-0.039-0.517-0.116-0.756 c-0.078-0.242-0.303-0.369-0.676-0.385v-0.209l2.327-0.744v8.54c0,0.125,0.016,0.26,0.047,0.407 c0.03,0.147,0.077,0.284,0.14,0.407c0.062,0.125,0.14,0.233,0.232,0.326c0.093,0.094,0.202,0.14,0.325,0.14v0.233H182.284z M182.399,13.685c0-0.31,0.105-0.573,0.315-0.791c0.209-0.217,0.469-0.326,0.779-0.326c0.31,0,0.574,0.109,0.791,0.326 c0.218,0.217,0.326,0.481,0.326,0.791c0,0.311-0.108,0.567-0.326,0.768c-0.217,0.201-0.481,0.303-0.791,0.303 c-0.311,0-0.57-0.102-0.779-0.303C182.505,14.251,182.399,13.996,182.399,13.685z"></path> <path fill="#365263" d="M189.079,21.271c0.062,0.542,0.193,1.058,0.395,1.547c0.202,0.489,0.47,0.918,0.803,1.291 c0.334,0.373,0.741,0.671,1.223,0.896c0.479,0.226,1.04,0.338,1.676,0.338c0.341,0,0.701-0.051,1.082-0.153 c0.38-0.1,0.732-0.244,1.059-0.429c0.325-0.187,0.616-0.416,0.872-0.687c0.256-0.271,0.43-0.579,0.524-0.92h0.208V24.9 c-0.092,0-0.197,0.033-0.313,0.094c-0.116,0.062-0.252,0.138-0.406,0.232c-0.312,0.186-0.73,0.384-1.258,0.593 c-0.527,0.209-1.225,0.314-2.094,0.314c-0.699,0-1.361-0.102-1.99-0.304c-0.628-0.2-1.183-0.511-1.663-0.931 c-0.481-0.418-0.865-0.953-1.152-1.605c-0.287-0.651-0.431-1.427-0.431-2.327c0-0.573,0.097-1.154,0.291-1.745 c0.193-0.589,0.489-1.12,0.884-1.595c0.396-0.473,0.904-0.856,1.524-1.15c0.62-0.295,1.364-0.442,2.234-0.442 c0.775,0,1.453,0.131,2.036,0.395c0.582,0.264,1.062,0.629,1.443,1.094c0.38,0.465,0.663,1.016,0.85,1.653 c0.186,0.636,0.278,1.334,0.278,2.094H189.079z M192.452,16.803c-0.543,0-1.012,0.109-1.407,0.326 c-0.396,0.218-0.733,0.496-1.013,0.838s-0.497,0.729-0.65,1.164c-0.156,0.435-0.257,0.869-0.303,1.303h6.632 c-0.016-0.45-0.098-0.893-0.244-1.327c-0.148-0.435-0.354-0.822-0.617-1.164c-0.265-0.34-0.597-0.616-1.001-0.825 C193.445,16.908,192.98,16.803,192.452,16.803z"></path> </g> </g> <g> <g> <path fill="#365263" d="M80.989,43.99h0.07c0.075,0,0.14-0.025,0.196-0.076c0.056-0.051,0.104-0.114,0.146-0.188 s0.074-0.153,0.098-0.238c0.022-0.083,0.034-0.163,0.034-0.237v-7.469c0-0.065-0.012-0.141-0.034-0.224 c-0.024-0.083-0.056-0.163-0.098-0.237s-0.091-0.138-0.146-0.189c-0.056-0.051-0.121-0.076-0.196-0.076h-0.07v-0.141h5.376v1.3 h-0.14c-0.019-0.215-0.103-0.403-0.251-0.566c-0.148-0.162-0.381-0.244-0.698-0.244h-2.806v3.532h2.318 c0.214,0,0.393-0.064,0.538-0.195c0.144-0.13,0.216-0.282,0.216-0.46h0.14v1.745h-0.14c0-0.168-0.069-0.313-0.209-0.433 c-0.139-0.121-0.321-0.183-0.544-0.183h-2.318v4.23h3.058c0.176,0,0.33-0.041,0.46-0.125s0.239-0.184,0.328-0.301 c0.088-0.115,0.153-0.24,0.196-0.377c0.042-0.134,0.063-0.249,0.063-0.341h0.14v1.633h-5.725V43.99z"></path> <path fill="#365263" d="M91.349,43.99c0.177,0,0.266-0.064,0.266-0.195c0-0.047-0.056-0.147-0.167-0.308l-1.396-1.927 l-1.452,1.97c-0.028,0.037-0.061,0.088-0.097,0.152c-0.038,0.065-0.056,0.122-0.056,0.169c0,0.092,0.051,0.139,0.153,0.139v0.14 h-1.313v-0.14c0.13,0,0.27-0.053,0.419-0.159c0.148-0.107,0.274-0.236,0.376-0.386l1.69-2.289l-1.564-2.122 c-0.046-0.057-0.1-0.121-0.16-0.195c-0.061-0.074-0.13-0.145-0.21-0.21c-0.079-0.064-0.158-0.118-0.237-0.159 c-0.079-0.044-0.151-0.064-0.216-0.064v-0.14h2.039v0.14c-0.056,0-0.114,0.02-0.175,0.057c-0.06,0.037-0.091,0.106-0.091,0.209 c0,0.065,0.028,0.131,0.084,0.195l1.131,1.564l1.075-1.424c0.074-0.094,0.12-0.168,0.14-0.225 c0.018-0.055,0.028-0.106,0.028-0.153c0-0.056-0.017-0.105-0.049-0.153c-0.033-0.047-0.082-0.07-0.146-0.07v-0.14h1.34v0.14 c-0.149,0-0.289,0.073-0.419,0.216c-0.13,0.146-0.247,0.282-0.349,0.413l-1.354,1.801l1.871,2.527 c0.121,0.168,0.266,0.314,0.433,0.439c0.167,0.126,0.321,0.188,0.461,0.188v0.14h-2.053V43.99z"></path> <path fill="#365263" d="M97.241,38.168c0.503,0,0.938,0.086,1.305,0.258c0.368,0.173,0.675,0.399,0.922,0.678 c0.246,0.28,0.43,0.601,0.551,0.964s0.181,0.735,0.181,1.116c0,0.373-0.058,0.74-0.174,1.103 c-0.117,0.364-0.293,0.69-0.531,0.979c-0.237,0.288-0.533,0.521-0.887,0.698s-0.772,0.266-1.256,0.266 c-0.289,0-0.584-0.077-0.887-0.231c-0.303-0.153-0.575-0.346-0.817-0.578v2.736c0,0.074,0.01,0.155,0.028,0.244 c0.019,0.088,0.049,0.169,0.091,0.244c0.042,0.075,0.088,0.14,0.14,0.195c0.05,0.056,0.113,0.084,0.188,0.084v0.141H94.28v-0.141 c0.065,0,0.126-0.028,0.182-0.084c0.056-0.056,0.105-0.12,0.147-0.195s0.071-0.156,0.091-0.244 c0.019-0.089,0.028-0.17,0.028-0.244V39.09c0-0.083-0.002-0.166-0.007-0.244c-0.005-0.079-0.021-0.149-0.049-0.21 c-0.028-0.061-0.072-0.111-0.132-0.153c-0.061-0.042-0.146-0.067-0.259-0.077v-0.14h1.369v0.614 c0.186-0.223,0.412-0.397,0.677-0.522C96.591,38.231,96.896,38.168,97.241,38.168z M97.366,43.753 c0.326-0.009,0.609-0.083,0.852-0.223c0.242-0.141,0.442-0.322,0.601-0.545c0.158-0.224,0.274-0.473,0.349-0.747 s0.112-0.561,0.112-0.859c0-0.335-0.047-0.665-0.139-0.99c-0.093-0.326-0.229-0.617-0.405-0.872 c-0.177-0.257-0.394-0.466-0.649-0.629c-0.256-0.163-0.547-0.244-0.873-0.244c-0.195,0-0.388,0.037-0.58,0.11 c-0.19,0.075-0.358,0.182-0.502,0.322c-0.145,0.139-0.261,0.305-0.349,0.496c-0.089,0.19-0.133,0.401-0.133,0.635v1.829 c0,0.25,0.051,0.481,0.154,0.69c0.103,0.21,0.235,0.392,0.397,0.544c0.163,0.154,0.347,0.273,0.552,0.356 C96.957,43.712,97.162,43.753,97.366,43.753z"></path> <path fill="#365263" d="M102.226,41.31c0.037,0.327,0.116,0.636,0.237,0.929c0.121,0.293,0.281,0.551,0.481,0.774 c0.2,0.225,0.445,0.403,0.733,0.538c0.289,0.135,0.624,0.202,1.005,0.202c0.205,0,0.421-0.029,0.649-0.091 c0.228-0.06,0.44-0.146,0.635-0.258c0.195-0.112,0.37-0.25,0.524-0.412c0.153-0.163,0.258-0.347,0.314-0.552h0.125v1.047 c-0.056,0-0.119,0.02-0.188,0.057c-0.07,0.037-0.151,0.083-0.244,0.139c-0.187,0.112-0.438,0.231-0.754,0.356 c-0.316,0.126-0.735,0.189-1.256,0.189c-0.419,0-0.817-0.062-1.194-0.182c-0.377-0.121-0.71-0.308-0.998-0.56 c-0.289-0.25-0.519-0.571-0.691-0.963c-0.172-0.39-0.258-0.855-0.258-1.396c0-0.345,0.058-0.693,0.174-1.048 c0.116-0.354,0.293-0.672,0.53-0.957c0.237-0.283,0.542-0.514,0.915-0.69s0.819-0.266,1.34-0.266 c0.465,0,0.873,0.079,1.222,0.237c0.349,0.159,0.638,0.377,0.866,0.656c0.229,0.28,0.397,0.609,0.51,0.992 c0.112,0.382,0.167,0.801,0.167,1.256H102.226z M104.25,38.629c-0.326,0-0.607,0.065-0.844,0.196s-0.44,0.297-0.607,0.502 s-0.298,0.438-0.391,0.698c-0.093,0.26-0.153,0.521-0.181,0.781h3.979c-0.009-0.27-0.058-0.534-0.146-0.795 c-0.089-0.261-0.212-0.494-0.37-0.698c-0.158-0.205-0.358-0.37-0.6-0.496C104.846,38.691,104.566,38.629,104.25,38.629z"></path> <path fill="#365263" d="M111.635,39.285c-0.112-0.187-0.228-0.303-0.349-0.35c-0.121-0.045-0.261-0.069-0.419-0.069 c-0.102,0-0.212,0.024-0.328,0.069c-0.117,0.047-0.23,0.107-0.342,0.182c-0.112,0.076-0.221,0.156-0.328,0.245 s-0.198,0.17-0.272,0.243v3.632c0,0.074,0.01,0.152,0.028,0.237c0.019,0.083,0.049,0.164,0.091,0.244 c0.042,0.079,0.088,0.145,0.14,0.195c0.051,0.051,0.113,0.076,0.188,0.076v0.14h-1.816v-0.14c0.065,0,0.126-0.025,0.182-0.076 s0.104-0.116,0.146-0.195c0.042-0.08,0.072-0.161,0.091-0.244c0.019-0.085,0.028-0.163,0.028-0.237v-3.896 c0-0.131-0.042-0.261-0.125-0.392c-0.084-0.131-0.205-0.214-0.363-0.252v-0.11l1.41-0.42v0.839 c0.084-0.104,0.172-0.203,0.266-0.3c0.093-0.099,0.198-0.187,0.314-0.267c0.117-0.079,0.244-0.145,0.384-0.195 c0.139-0.051,0.302-0.077,0.489-0.077c0.13,0,0.298,0.028,0.502,0.084s0.373,0.117,0.503,0.182L111.635,39.285z"></path> <path fill="#365263" d="M114.302,38.74v3.365c0,0.242,0.005,0.461,0.014,0.656s0.032,0.358,0.069,0.488 c0.037,0.131,0.093,0.231,0.168,0.301s0.177,0.105,0.308,0.105c0.195,0,0.378-0.094,0.551-0.279 c0.172-0.187,0.281-0.41,0.328-0.671h0.126v1.02c-0.084,0-0.154,0.027-0.21,0.084c-0.075,0.064-0.179,0.134-0.314,0.209 c-0.136,0.074-0.338,0.111-0.607,0.111c-0.335,0-0.596-0.065-0.782-0.195s-0.321-0.303-0.405-0.516 c-0.083-0.215-0.133-0.452-0.146-0.713c-0.014-0.26-0.021-0.525-0.021-0.796v-3.17h-0.781v-0.475h0.781v-1.242 c0-0.158-0.021-0.306-0.063-0.439c-0.042-0.135-0.179-0.208-0.412-0.217v-0.14l1.396-0.446v2.484h1.564v0.475H114.302z"></path> <path fill="#365263" d="M125.444,35.278c-0.689,0-1.288,0.123-1.794,0.369c-0.507,0.248-0.929,0.569-1.264,0.964 c-0.335,0.396-0.584,0.841-0.747,1.334c-0.163,0.492-0.245,0.981-0.245,1.465c0,0.551,0.107,1.088,0.321,1.613 c0.214,0.526,0.51,0.992,0.887,1.396c0.377,0.406,0.816,0.731,1.319,0.979c0.502,0.246,1.047,0.369,1.633,0.369 c0.168,0,0.366-0.019,0.594-0.055c0.228-0.038,0.454-0.109,0.677-0.217c0.224-0.107,0.431-0.258,0.622-0.453 c0.19-0.196,0.337-0.453,0.44-0.769h0.139v1.549c-0.139,0-0.286,0.021-0.439,0.057c-0.154,0.038-0.324,0.08-0.509,0.126 c-0.243,0.064-0.51,0.125-0.804,0.181c-0.292,0.057-0.603,0.085-0.928,0.085c-0.81,0-1.521-0.141-2.136-0.419 c-0.614-0.279-1.125-0.644-1.533-1.09c-0.408-0.446-0.712-0.952-0.915-1.515s-0.303-1.133-0.303-1.71s0.101-1.15,0.303-1.718 s0.511-1.078,0.928-1.529c0.417-0.45,0.942-0.815,1.575-1.096c0.634-0.28,1.378-0.419,2.234-0.419 c0.307,0,0.583,0.028,0.831,0.084c0.246,0.055,0.467,0.111,0.663,0.167c0.139,0.048,0.268,0.082,0.384,0.104 c0.117,0.023,0.23,0.036,0.342,0.036v1.55h-0.139c-0.057-0.289-0.16-0.529-0.308-0.72c-0.149-0.19-0.324-0.337-0.524-0.439 c-0.2-0.104-0.414-0.175-0.643-0.217C125.879,35.3,125.658,35.278,125.444,35.278z"></path> <path fill="#365263" d="M132.173,44.229c-0.465,0-0.884-0.077-1.256-0.231c-0.373-0.153-0.691-0.362-0.957-0.628 c-0.265-0.265-0.471-0.58-0.615-0.942c-0.144-0.362-0.216-0.758-0.216-1.188c0-0.455,0.079-0.872,0.236-1.248 c0.159-0.378,0.378-0.701,0.657-0.971c0.28-0.271,0.61-0.479,0.992-0.629c0.381-0.149,0.794-0.224,1.242-0.224 c0.447,0,0.856,0.073,1.229,0.216c0.373,0.146,0.692,0.348,0.964,0.608c0.269,0.261,0.48,0.57,0.629,0.928 c0.147,0.358,0.222,0.753,0.222,1.181c0,0.399-0.066,0.789-0.202,1.165c-0.135,0.377-0.334,0.711-0.599,0.999 c-0.267,0.288-0.592,0.521-0.979,0.698C133.135,44.14,132.686,44.229,132.173,44.229z M132.082,38.629 c-0.333,0.02-0.627,0.1-0.883,0.244c-0.255,0.146-0.467,0.331-0.64,0.558c-0.17,0.229-0.302,0.487-0.389,0.776 c-0.089,0.288-0.133,0.582-0.133,0.88c0,0.344,0.053,0.677,0.16,0.998c0.107,0.32,0.26,0.607,0.46,0.858 c0.199,0.251,0.438,0.451,0.717,0.601c0.278,0.148,0.588,0.223,0.932,0.223c0.345,0,0.647-0.074,0.912-0.223 c0.266-0.149,0.485-0.342,0.661-0.58c0.177-0.237,0.31-0.505,0.396-0.803c0.089-0.298,0.133-0.596,0.133-0.893 c0-0.308-0.048-0.617-0.14-0.93c-0.094-0.312-0.236-0.594-0.431-0.852c-0.194-0.256-0.438-0.462-0.731-0.621 C132.813,38.708,132.473,38.629,132.082,38.629z"></path> <path fill="#365263" d="M145.481,43.224c0,0.074,0.009,0.154,0.026,0.243c0.019,0.089,0.046,0.17,0.084,0.245 c0.036,0.074,0.082,0.14,0.133,0.195s0.114,0.083,0.189,0.083v0.14h-1.816v-0.14c0.074,0,0.14-0.027,0.196-0.083 c0.055-0.056,0.104-0.121,0.145-0.195c0.042-0.075,0.073-0.156,0.092-0.245c0.02-0.089,0.028-0.169,0.028-0.243v-3.017 c0-0.214-0.03-0.419-0.091-0.614c-0.062-0.195-0.152-0.366-0.271-0.51c-0.123-0.145-0.271-0.261-0.448-0.35 c-0.177-0.088-0.376-0.133-0.6-0.133c-0.251,0-0.467,0.06-0.648,0.175c-0.183,0.117-0.332,0.259-0.448,0.427 c-0.116,0.166-0.201,0.337-0.258,0.51c-0.057,0.172-0.083,0.313-0.083,0.425v3.087c0,0.074,0.009,0.154,0.026,0.243 c0.021,0.089,0.049,0.17,0.092,0.245c0.041,0.074,0.088,0.14,0.14,0.195c0.051,0.056,0.114,0.083,0.188,0.083v0.14h-1.801v-0.14 c0.065,0,0.125-0.027,0.182-0.083s0.103-0.121,0.146-0.195c0.043-0.075,0.072-0.156,0.09-0.245 c0.021-0.089,0.029-0.169,0.029-0.243v-3.101c0-0.224-0.04-0.431-0.119-0.621c-0.078-0.191-0.186-0.352-0.32-0.481 c-0.134-0.13-0.289-0.233-0.462-0.308c-0.171-0.075-0.346-0.112-0.523-0.112c-0.241,0-0.453,0.048-0.635,0.14 c-0.182,0.095-0.33,0.21-0.447,0.35c-0.116,0.14-0.203,0.291-0.266,0.453c-0.061,0.164-0.091,0.32-0.091,0.469v3.212 c0,0.074,0.009,0.154,0.03,0.243c0.018,0.089,0.048,0.17,0.09,0.245c0.042,0.074,0.087,0.14,0.138,0.195 c0.053,0.056,0.115,0.083,0.189,0.083v0.14h-1.801v-0.14c0.064,0,0.127-0.027,0.182-0.083c0.056-0.056,0.105-0.121,0.146-0.195 c0.042-0.075,0.071-0.156,0.092-0.245c0.018-0.089,0.026-0.169,0.026-0.243v-3.729c0-0.075-0.003-0.159-0.015-0.252 c-0.009-0.093-0.027-0.182-0.054-0.266c-0.029-0.083-0.075-0.152-0.141-0.208c-0.064-0.057-0.154-0.085-0.266-0.085v-0.126 l1.382-0.46v0.712c0.14-0.157,0.332-0.312,0.581-0.46c0.247-0.15,0.57-0.225,0.97-0.225c0.261,0,0.492,0.038,0.698,0.112 c0.203,0.074,0.384,0.17,0.538,0.286c0.152,0.117,0.285,0.249,0.396,0.398c0.112,0.149,0.206,0.292,0.28,0.433 c0.074-0.141,0.163-0.281,0.265-0.427c0.103-0.144,0.227-0.275,0.369-0.396c0.146-0.121,0.316-0.22,0.519-0.294 c0.2-0.074,0.435-0.112,0.703-0.112c0.522,0,0.931,0.095,1.229,0.279c0.298,0.187,0.521,0.409,0.663,0.671 c0.145,0.26,0.235,0.532,0.273,0.816c0.036,0.285,0.057,0.523,0.057,0.719V43.224z"></path> <path fill="#365263" d="M150.312,38.168c0.502,0,0.936,0.086,1.305,0.258c0.367,0.173,0.675,0.399,0.922,0.678 c0.245,0.28,0.429,0.601,0.551,0.964c0.12,0.363,0.182,0.735,0.182,1.116c0,0.373-0.058,0.74-0.175,1.103 c-0.116,0.364-0.292,0.69-0.529,0.979c-0.238,0.288-0.533,0.521-0.888,0.698c-0.354,0.177-0.773,0.266-1.256,0.266 c-0.289,0-0.584-0.077-0.888-0.231c-0.302-0.153-0.574-0.346-0.816-0.578v2.736c0,0.074,0.009,0.155,0.029,0.244 c0.018,0.088,0.047,0.169,0.089,0.244s0.089,0.14,0.14,0.195c0.052,0.056,0.115,0.084,0.189,0.084v0.141h-1.814v-0.141 c0.063,0,0.125-0.028,0.18-0.084c0.057-0.056,0.105-0.12,0.147-0.195s0.073-0.156,0.091-0.244 c0.018-0.089,0.028-0.17,0.028-0.244V39.09c0-0.083-0.003-0.166-0.009-0.244c-0.003-0.079-0.02-0.149-0.046-0.21 c-0.03-0.061-0.074-0.111-0.134-0.153c-0.062-0.042-0.146-0.067-0.258-0.077v-0.14h1.367v0.614 c0.188-0.223,0.412-0.397,0.679-0.522C149.662,38.231,149.966,38.168,150.312,38.168z M150.437,43.753 c0.325-0.009,0.609-0.083,0.852-0.223c0.241-0.141,0.441-0.322,0.602-0.545c0.157-0.224,0.272-0.473,0.349-0.747 c0.072-0.274,0.111-0.561,0.111-0.859c0-0.335-0.048-0.665-0.141-0.99c-0.093-0.326-0.228-0.617-0.405-0.872 c-0.177-0.257-0.393-0.466-0.648-0.629c-0.257-0.163-0.547-0.244-0.873-0.244c-0.194,0-0.389,0.037-0.578,0.11 c-0.19,0.075-0.36,0.182-0.504,0.322c-0.144,0.139-0.26,0.305-0.349,0.496c-0.09,0.19-0.133,0.401-0.133,0.635v1.829 c0,0.25,0.051,0.481,0.154,0.69c0.103,0.21,0.234,0.392,0.398,0.544c0.161,0.154,0.345,0.273,0.551,0.356 C150.025,43.712,150.23,43.753,150.437,43.753z"></path> <path fill="#365263" d="M155.895,38.74v3.365c0,0.242,0.005,0.461,0.014,0.656c0.01,0.195,0.033,0.358,0.072,0.488 c0.035,0.131,0.092,0.231,0.166,0.301c0.075,0.069,0.177,0.105,0.308,0.105c0.195,0,0.379-0.094,0.551-0.279 c0.173-0.187,0.282-0.41,0.329-0.671h0.126v1.02c-0.084,0-0.155,0.027-0.212,0.084c-0.074,0.064-0.178,0.134-0.313,0.209 c-0.136,0.074-0.337,0.111-0.607,0.111c-0.335,0-0.595-0.065-0.783-0.195c-0.186-0.13-0.319-0.303-0.403-0.516 c-0.084-0.215-0.132-0.452-0.147-0.713c-0.015-0.26-0.02-0.525-0.02-0.796v-3.17h-0.782v-0.475h0.782v-1.242 c0-0.158-0.021-0.306-0.063-0.439c-0.043-0.135-0.181-0.208-0.413-0.217v-0.14l1.396-0.446v2.484h1.565v0.475H155.895z"></path> <path fill="#365263" d="M162.191,44.13v-0.711l-0.068,0.068c-0.233,0.234-0.5,0.415-0.804,0.545 c-0.302,0.131-0.667,0.196-1.097,0.196c-0.325,0-0.604-0.039-0.836-0.112c-0.232-0.074-0.424-0.179-0.572-0.314 c-0.149-0.134-0.259-0.291-0.329-0.468c-0.07-0.176-0.104-0.363-0.104-0.559c0-0.316,0.085-0.595,0.258-0.837 c0.171-0.242,0.42-0.456,0.747-0.643c0.326-0.187,0.724-0.356,1.192-0.51c0.472-0.154,1.007-0.305,1.612-0.454 c-0.018-0.362-0.092-0.656-0.223-0.879c-0.129-0.224-0.284-0.398-0.461-0.524c-0.176-0.125-0.363-0.209-0.558-0.251 c-0.196-0.042-0.363-0.063-0.503-0.063c-0.242,0-0.453,0.038-0.636,0.112c-0.182,0.074-0.339,0.17-0.474,0.286 s-0.249,0.242-0.342,0.376c-0.095,0.136-0.17,0.264-0.225,0.385h-0.125v-1.021c0.075-0.009,0.145-0.031,0.21-0.069 c0.065-0.036,0.143-0.074,0.236-0.111c0.14-0.057,0.33-0.137,0.572-0.245c0.242-0.106,0.581-0.16,1.021-0.16 c0.51,0,0.925,0.065,1.241,0.195c0.316,0.131,0.562,0.303,0.734,0.517c0.171,0.215,0.285,0.459,0.342,0.733 s0.083,0.557,0.083,0.845v2.766c0,0.187,0.043,0.359,0.126,0.522s0.196,0.244,0.335,0.244v0.14H162.191z M162.191,42.805v-1.998 l-0.138,0.028c-0.224,0.056-0.496,0.132-0.817,0.224c-0.321,0.093-0.627,0.214-0.915,0.362c-0.289,0.15-0.534,0.326-0.739,0.531 c-0.205,0.204-0.308,0.441-0.308,0.711c0,0.299,0.122,0.545,0.363,0.741c0.241,0.195,0.559,0.293,0.949,0.293 c0.307,0,0.578-0.067,0.811-0.202s0.445-0.31,0.642-0.524L162.191,42.805z"></path> <path fill="#365263" d="M167.875,38.168c0.502,0,0.938,0.084,1.306,0.252s0.673,0.391,0.914,0.67 c0.242,0.278,0.424,0.599,0.546,0.957c0.12,0.357,0.18,0.724,0.18,1.095c0,0.383-0.06,0.757-0.18,1.124 c-0.122,0.368-0.306,0.698-0.553,0.992c-0.247,0.293-0.551,0.528-0.914,0.705c-0.364,0.177-0.782,0.266-1.257,0.266 c-0.354,0-0.675-0.072-0.964-0.218c-0.288-0.144-0.516-0.318-0.684-0.523v0.643h-1.368v-0.14c0.065,0,0.125-0.027,0.182-0.083 s0.103-0.121,0.146-0.195c0.042-0.075,0.071-0.156,0.09-0.245c0.02-0.089,0.028-0.169,0.028-0.243v-7.122 c0-0.158-0.023-0.307-0.07-0.446c-0.046-0.14-0.18-0.214-0.404-0.224v-0.14l1.396-0.433v3.993 c0.213-0.215,0.468-0.382,0.761-0.502C167.324,38.229,167.604,38.168,167.875,38.168z M168.016,43.753 c0.334-0.019,0.623-0.1,0.865-0.245c0.241-0.143,0.443-0.326,0.606-0.551c0.162-0.223,0.284-0.478,0.364-0.76 c0.078-0.285,0.118-0.576,0.118-0.874c0-0.335-0.048-0.659-0.141-0.978c-0.093-0.316-0.23-0.6-0.41-0.851 c-0.182-0.252-0.409-0.454-0.678-0.607c-0.271-0.154-0.577-0.23-0.922-0.23c-0.195,0-0.387,0.045-0.573,0.133 c-0.186,0.088-0.352,0.204-0.495,0.35c-0.145,0.144-0.261,0.315-0.349,0.516c-0.089,0.199-0.133,0.412-0.133,0.636v1.731 c0,0.27,0.051,0.512,0.153,0.726c0.102,0.214,0.238,0.396,0.404,0.544c0.168,0.149,0.356,0.264,0.566,0.343 C167.603,43.714,167.81,43.753,168.016,43.753z"></path> <path fill="#365263" d="M172.12,44.13v-0.14c0.072,0,0.138-0.027,0.194-0.083s0.105-0.121,0.147-0.195 c0.041-0.075,0.071-0.156,0.091-0.245c0.018-0.089,0.027-0.169,0.027-0.243v-7.15c0-0.157-0.023-0.308-0.069-0.446 c-0.047-0.14-0.188-0.214-0.419-0.224v-0.14l1.41-0.433v8.393c0,0.074,0.009,0.154,0.027,0.243 c0.018,0.089,0.049,0.17,0.091,0.245c0.041,0.074,0.089,0.14,0.14,0.195c0.052,0.056,0.115,0.083,0.189,0.083v0.14H172.12z"></path> <path fill="#365263" d="M176.056,41.31c0.038,0.327,0.116,0.636,0.238,0.929c0.12,0.293,0.282,0.551,0.481,0.774 c0.201,0.225,0.444,0.403,0.733,0.538s0.624,0.202,1.006,0.202c0.203,0,0.422-0.029,0.648-0.091 c0.228-0.06,0.44-0.146,0.635-0.258c0.196-0.112,0.371-0.25,0.522-0.412c0.155-0.163,0.261-0.347,0.315-0.552h0.126v1.047 c-0.055,0-0.118,0.02-0.188,0.057c-0.071,0.037-0.153,0.083-0.245,0.139c-0.187,0.112-0.438,0.231-0.754,0.356 c-0.317,0.126-0.735,0.189-1.257,0.189c-0.419,0-0.817-0.062-1.193-0.182c-0.378-0.121-0.711-0.308-0.998-0.56 c-0.289-0.25-0.521-0.571-0.693-0.963c-0.171-0.39-0.258-0.855-0.258-1.396c0-0.345,0.059-0.693,0.175-1.048 c0.116-0.354,0.295-0.672,0.531-0.957c0.238-0.283,0.542-0.514,0.915-0.69c0.372-0.177,0.819-0.266,1.341-0.266 c0.465,0,0.873,0.079,1.222,0.237c0.349,0.159,0.637,0.377,0.865,0.656c0.228,0.28,0.398,0.609,0.509,0.992 c0.111,0.382,0.168,0.801,0.168,1.256H176.056z M178.082,38.629c-0.326,0-0.607,0.065-0.846,0.196 c-0.236,0.131-0.439,0.297-0.607,0.502s-0.298,0.438-0.392,0.698c-0.092,0.26-0.152,0.521-0.182,0.781h3.98 c-0.009-0.27-0.059-0.534-0.148-0.795c-0.086-0.261-0.21-0.494-0.368-0.698c-0.158-0.205-0.358-0.37-0.601-0.496 C178.676,38.691,178.397,38.629,178.082,38.629z"></path> <path fill="#365263" d="M190.131,44.13v-0.614c-0.159,0.177-0.371,0.34-0.636,0.489c-0.266,0.148-0.599,0.224-0.999,0.224 c-0.492,0-0.923-0.086-1.29-0.259c-0.369-0.172-0.673-0.397-0.915-0.678c-0.243-0.279-0.422-0.597-0.538-0.956 c-0.116-0.358-0.174-0.729-0.174-1.109c0-0.372,0.061-0.742,0.182-1.11c0.119-0.367,0.301-0.696,0.543-0.984 s0.546-0.521,0.907-0.698c0.364-0.177,0.784-0.266,1.259-0.266c0.316,0,0.627,0.059,0.934,0.175 c0.308,0.116,0.55,0.268,0.728,0.453v-2.723c0-0.157-0.023-0.308-0.07-0.446c-0.046-0.14-0.182-0.214-0.406-0.224v-0.14 l1.396-0.433v8.393c0,0.074,0.011,0.154,0.029,0.243s0.045,0.17,0.084,0.245c0.036,0.074,0.083,0.14,0.14,0.195 c0.055,0.056,0.12,0.083,0.195,0.083v0.14H190.131z M188.595,43.767c0.194,0,0.386-0.039,0.572-0.118 c0.186-0.079,0.35-0.186,0.487-0.321c0.141-0.135,0.255-0.294,0.344-0.474c0.087-0.182,0.133-0.381,0.133-0.594v-1.914 c0-0.26-0.057-0.495-0.169-0.704c-0.11-0.211-0.251-0.389-0.419-0.538c-0.166-0.147-0.35-0.263-0.551-0.343 c-0.199-0.078-0.394-0.117-0.579-0.117c-0.308,0-0.582,0.072-0.824,0.216c-0.24,0.144-0.446,0.331-0.614,0.559 c-0.166,0.229-0.292,0.484-0.376,0.769c-0.085,0.282-0.127,0.564-0.127,0.845c0,0.325,0.047,0.648,0.14,0.971 c0.093,0.32,0.23,0.608,0.413,0.865c0.182,0.256,0.401,0.467,0.663,0.635C187.947,43.67,188.249,43.758,188.595,43.767z"></path> <path fill="#365263" d="M193.62,41.31c0.038,0.327,0.116,0.636,0.237,0.929c0.12,0.293,0.282,0.551,0.482,0.774 c0.199,0.225,0.443,0.403,0.732,0.538s0.623,0.202,1.006,0.202c0.203,0,0.421-0.029,0.648-0.091 c0.228-0.06,0.439-0.146,0.635-0.258c0.196-0.112,0.371-0.25,0.523-0.412c0.155-0.163,0.26-0.347,0.314-0.552h0.125v1.047 c-0.055,0-0.118,0.02-0.187,0.057c-0.071,0.037-0.152,0.083-0.246,0.139c-0.185,0.112-0.436,0.231-0.752,0.356 c-0.318,0.126-0.736,0.189-1.259,0.189c-0.418,0-0.815-0.062-1.191-0.182c-0.378-0.121-0.712-0.308-0.999-0.56 c-0.288-0.25-0.52-0.571-0.692-0.963c-0.171-0.39-0.258-0.855-0.258-1.396c0-0.345,0.059-0.693,0.175-1.048 c0.116-0.354,0.295-0.672,0.53-0.957c0.238-0.283,0.542-0.514,0.914-0.69c0.374-0.177,0.82-0.266,1.342-0.266 c0.466,0,0.873,0.079,1.222,0.237c0.35,0.159,0.637,0.377,0.866,0.656c0.227,0.28,0.397,0.609,0.509,0.992 c0.111,0.382,0.167,0.801,0.167,1.256H193.62z M195.645,38.629c-0.325,0-0.606,0.065-0.845,0.196 c-0.236,0.131-0.44,0.297-0.606,0.502c-0.168,0.205-0.299,0.438-0.392,0.698s-0.152,0.521-0.182,0.781h3.979 c-0.009-0.27-0.057-0.534-0.146-0.795c-0.087-0.261-0.21-0.494-0.369-0.698c-0.158-0.205-0.358-0.37-0.6-0.496 C196.239,38.691,195.962,38.629,195.645,38.629z"></path> <path fill="#365263" d="M202.599,38.168c0.503,0,0.937,0.086,1.306,0.258c0.367,0.173,0.675,0.399,0.922,0.678 c0.245,0.28,0.429,0.601,0.551,0.964c0.12,0.363,0.182,0.735,0.182,1.116c0,0.373-0.058,0.74-0.175,1.103 c-0.116,0.364-0.293,0.69-0.53,0.979c-0.238,0.288-0.532,0.521-0.887,0.698c-0.354,0.177-0.773,0.266-1.257,0.266 c-0.289,0-0.583-0.077-0.887-0.231c-0.302-0.153-0.575-0.346-0.817-0.578v2.736c0,0.074,0.009,0.155,0.03,0.244 c0.018,0.088,0.047,0.169,0.088,0.244c0.043,0.075,0.09,0.14,0.141,0.195s0.114,0.084,0.189,0.084v0.141h-1.814v-0.141 c0.063,0,0.125-0.028,0.18-0.084c0.057-0.056,0.105-0.12,0.146-0.195c0.043-0.075,0.073-0.156,0.092-0.244 c0.018-0.089,0.027-0.17,0.027-0.244V39.09c0-0.083-0.002-0.166-0.008-0.244c-0.003-0.079-0.02-0.149-0.047-0.21 c-0.029-0.061-0.073-0.111-0.133-0.153c-0.062-0.042-0.146-0.067-0.258-0.077v-0.14h1.366v0.614 c0.188-0.223,0.413-0.397,0.679-0.522C201.95,38.231,202.254,38.168,202.599,38.168z M202.724,43.753 c0.326-0.009,0.609-0.083,0.852-0.223c0.241-0.141,0.442-0.322,0.602-0.545c0.158-0.224,0.273-0.473,0.35-0.747 c0.072-0.274,0.111-0.561,0.111-0.859c0-0.335-0.048-0.665-0.142-0.99c-0.092-0.326-0.227-0.617-0.404-0.872 c-0.177-0.257-0.394-0.466-0.649-0.629s-0.547-0.244-0.872-0.244c-0.194,0-0.389,0.037-0.579,0.11 c-0.19,0.075-0.359,0.182-0.503,0.322c-0.144,0.139-0.26,0.305-0.35,0.496c-0.089,0.19-0.133,0.401-0.133,0.635v1.829 c0,0.25,0.052,0.481,0.155,0.69c0.102,0.21,0.234,0.392,0.397,0.544c0.162,0.154,0.346,0.273,0.551,0.356 C202.313,43.712,202.519,43.753,202.724,43.753z"></path> <path fill="#365263" d="M212.344,43.224c0,0.064,0.009,0.142,0.026,0.229c0.021,0.088,0.046,0.173,0.079,0.251 c0.032,0.08,0.076,0.147,0.133,0.203c0.055,0.056,0.12,0.083,0.194,0.083v0.14h-1.354v-0.768 c-0.14,0.205-0.344,0.404-0.614,0.601c-0.27,0.195-0.618,0.292-1.047,0.292c-0.54,0-0.968-0.092-1.284-0.278 c-0.315-0.187-0.558-0.424-0.727-0.712c-0.168-0.288-0.275-0.603-0.32-0.942c-0.047-0.34-0.071-0.658-0.071-0.956v-1.998 c0-0.083-0.002-0.164-0.006-0.244c-0.005-0.078-0.022-0.15-0.056-0.216c-0.032-0.064-0.082-0.118-0.147-0.16 c-0.065-0.041-0.158-0.063-0.278-0.063v-0.126l1.409-0.446v3.561c0,0.708,0.154,1.229,0.462,1.564 c0.307,0.335,0.684,0.502,1.131,0.502c0.242,0,0.458-0.054,0.648-0.161c0.191-0.105,0.354-0.233,0.489-0.384 c0.135-0.148,0.236-0.303,0.308-0.46c0.068-0.158,0.104-0.288,0.104-0.392v-2.975c0-0.083-0.002-0.164-0.007-0.244 c-0.004-0.078-0.022-0.15-0.055-0.216c-0.033-0.064-0.082-0.118-0.148-0.16c-0.065-0.041-0.157-0.063-0.279-0.063v-0.126 l1.411-0.446V43.224z"></path> <path fill="#365263" d="M214.325,44.13v-0.14c0.075,0,0.141-0.027,0.196-0.083c0.057-0.056,0.102-0.121,0.14-0.195 c0.037-0.075,0.064-0.156,0.084-0.245c0.019-0.089,0.027-0.169,0.027-0.243v-3.868c0-0.158-0.024-0.31-0.068-0.454 c-0.048-0.145-0.183-0.221-0.406-0.23v-0.126l1.396-0.446v5.125c0,0.074,0.009,0.154,0.026,0.243 c0.021,0.089,0.048,0.17,0.085,0.245c0.037,0.074,0.085,0.14,0.14,0.195c0.056,0.056,0.121,0.083,0.196,0.083v0.14H214.325z M214.396,36.759c0-0.187,0.062-0.345,0.188-0.475c0.127-0.131,0.281-0.195,0.468-0.195c0.186,0,0.344,0.064,0.475,0.195 c0.129,0.13,0.194,0.288,0.194,0.475c0,0.186-0.065,0.339-0.194,0.46c-0.131,0.121-0.289,0.181-0.475,0.181 c-0.187,0-0.341-0.06-0.468-0.181C214.458,37.098,214.396,36.944,214.396,36.759z"></path> <path fill="#365263" d="M222.174,42.538c0,0.242-0.063,0.466-0.183,0.67c-0.121,0.206-0.285,0.386-0.496,0.538 c-0.208,0.154-0.452,0.275-0.732,0.363c-0.278,0.089-0.582,0.133-0.907,0.133c-0.399,0-0.726-0.054-0.979-0.161 c-0.25-0.106-0.466-0.217-0.641-0.328c-0.122-0.074-0.233-0.138-0.335-0.188c-0.104-0.051-0.214-0.077-0.336-0.077v-1.061h0.14 c0.028,0.131,0.109,0.272,0.245,0.427c0.135,0.153,0.297,0.295,0.487,0.425c0.19,0.132,0.401,0.239,0.629,0.328 c0.228,0.088,0.459,0.133,0.69,0.133c0.168,0,0.341-0.018,0.517-0.057c0.179-0.035,0.339-0.097,0.482-0.181 c0.145-0.083,0.265-0.189,0.363-0.314c0.098-0.125,0.147-0.276,0.147-0.453s-0.054-0.33-0.154-0.461 c-0.103-0.13-0.233-0.245-0.392-0.343c-0.157-0.098-0.34-0.184-0.544-0.258c-0.205-0.074-0.41-0.144-0.614-0.209 c-0.243-0.075-0.487-0.159-0.734-0.251c-0.245-0.094-0.467-0.203-0.662-0.329c-0.196-0.125-0.354-0.278-0.474-0.46 c-0.122-0.182-0.182-0.398-0.182-0.649c0-0.214,0.037-0.419,0.118-0.614c0.078-0.195,0.209-0.366,0.391-0.51 c0.182-0.145,0.416-0.261,0.706-0.35c0.288-0.089,0.638-0.133,1.047-0.133c0.363,0,0.643,0.03,0.846,0.091 c0.199,0.061,0.363,0.123,0.494,0.188c0.083,0.047,0.166,0.082,0.251,0.105c0.083,0.022,0.178,0.035,0.279,0.035v0.977h-0.11 c-0.169-0.307-0.424-0.539-0.77-0.698c-0.344-0.158-0.697-0.237-1.062-0.237c-0.232,0-0.433,0.031-0.6,0.091 c-0.168,0.062-0.306,0.136-0.411,0.224c-0.107,0.088-0.188,0.188-0.238,0.3c-0.051,0.112-0.076,0.224-0.076,0.336 c0,0.157,0.044,0.293,0.133,0.404c0.087,0.111,0.208,0.209,0.363,0.293c0.152,0.085,0.325,0.163,0.516,0.237 c0.192,0.074,0.394,0.146,0.607,0.21c0.261,0.083,0.521,0.174,0.782,0.272c0.26,0.098,0.492,0.217,0.698,0.355 c0.203,0.14,0.373,0.306,0.502,0.496C222.108,42.038,222.174,42.269,222.174,42.538z"></path> <path fill="#365263" d="M227.828,44.13v-0.14c0.223,0,0.365-0.067,0.425-0.201c0.061-0.136,0.091-0.296,0.091-0.482v-6.688 c0-0.093-0.048-0.139-0.14-0.139c-0.037,0-0.088,0.013-0.153,0.042l-1.593,0.502v-0.502l3.255-1.132v0.376 c-0.149,0.065-0.268,0.169-0.356,0.308c-0.09,0.141-0.123,0.303-0.105,0.489v6.688c0,0.195,0.033,0.368,0.099,0.517 c0.065,0.15,0.214,0.224,0.447,0.224v0.14H227.828z"></path> <path fill="#365263" d="M232.407,43.139c0.148,0.186,0.327,0.336,0.538,0.447c0.209,0.111,0.407,0.148,0.593,0.111 c0.4,0,0.755-0.093,1.062-0.278c0.308-0.187,0.569-0.434,0.789-0.74c0.218-0.307,0.391-0.641,0.517-0.999 c0.125-0.358,0.211-0.691,0.258-0.998c-0.271,0.241-0.57,0.41-0.899,0.502c-0.331,0.095-0.685,0.14-1.055,0.14 c-0.476,0-0.893-0.081-1.251-0.244c-0.358-0.162-0.656-0.377-0.893-0.643c-0.238-0.265-0.415-0.569-0.531-0.914 c-0.115-0.345-0.174-0.697-0.174-1.061s0.06-0.722,0.182-1.075c0.12-0.354,0.302-0.669,0.543-0.942 c0.242-0.275,0.544-0.496,0.901-0.663c0.358-0.168,0.775-0.252,1.25-0.252c0.53,0,0.985,0.098,1.361,0.293 c0.376,0.196,0.686,0.459,0.929,0.789c0.242,0.331,0.42,0.715,0.537,1.152c0.116,0.437,0.174,0.894,0.174,1.368 c0,0.614-0.065,1.23-0.194,1.85c-0.131,0.619-0.342,1.174-0.637,1.661c-0.292,0.489-0.678,0.888-1.158,1.194 c-0.479,0.308-1.063,0.46-1.752,0.46c-0.131,0-0.293-0.013-0.488-0.042c-0.195-0.026-0.35-0.05-0.461-0.069 c-0.065-0.009-0.133-0.019-0.203-0.027c-0.069-0.01-0.095-0.014-0.077-0.014v-1.006H232.407z M234.369,40.835 c0.334,0,0.625-0.058,0.876-0.174c0.25-0.116,0.456-0.272,0.619-0.469c0.162-0.195,0.282-0.418,0.362-0.67 c0.079-0.251,0.118-0.512,0.118-0.782c0-0.325-0.05-0.651-0.146-0.977c-0.098-0.325-0.24-0.616-0.432-0.873 c-0.19-0.256-0.422-0.466-0.696-0.627c-0.272-0.163-0.585-0.245-0.938-0.245c-0.316,0-0.594,0.063-0.83,0.188 c-0.235,0.125-0.436,0.293-0.597,0.502c-0.162,0.21-0.282,0.449-0.362,0.72c-0.079,0.27-0.118,0.544-0.118,0.823 c0,0.316,0.049,0.628,0.146,0.936c0.098,0.308,0.237,0.584,0.418,0.83c0.182,0.247,0.404,0.445,0.669,0.594 C233.722,40.761,234.024,40.835,234.369,40.835z"></path> <path fill="#365263" d="M241.106,44.13v-0.14c0.129,0,0.229-0.021,0.3-0.063c0.068-0.042,0.12-0.097,0.153-0.168 c0.032-0.069,0.051-0.148,0.056-0.237c0.006-0.088,0.008-0.178,0.008-0.272v-1.367h-3.813l4.721-6.688v5.989h0.853v0.699h-0.853 v1.367c0,0.187,0.034,0.356,0.104,0.51c0.069,0.154,0.217,0.23,0.44,0.23v0.14H241.106z M241.623,37.274 c-0.466,0.661-0.929,1.313-1.39,1.955c-0.462,0.643-0.923,1.293-1.389,1.954h2.778V37.274z"></path> <path fill="#365263" d="M250,41.857c0,0.409-0.081,0.766-0.245,1.067c-0.162,0.302-0.382,0.553-0.657,0.753 c-0.273,0.199-0.593,0.349-0.955,0.445c-0.362,0.098-0.75,0.147-1.158,0.147c-0.383,0-0.755-0.05-1.117-0.147 c-0.363-0.097-0.688-0.246-0.978-0.445c-0.289-0.2-0.52-0.448-0.69-0.746c-0.173-0.298-0.259-0.646-0.259-1.046 c0-0.53,0.158-1.006,0.475-1.429s0.818-0.736,1.507-0.94c-0.531-0.242-0.918-0.523-1.165-0.844s-0.371-0.713-0.371-1.178 c0-0.345,0.073-0.644,0.219-0.899c0.144-0.256,0.334-0.473,0.57-0.648c0.238-0.177,0.511-0.31,0.818-0.397 c0.307-0.088,0.617-0.132,0.935-0.132c0.316,0,0.631,0.044,0.943,0.132c0.311,0.088,0.588,0.221,0.831,0.397 c0.242,0.176,0.439,0.397,0.592,0.662c0.153,0.266,0.231,0.574,0.231,0.927c0,0.419-0.14,0.81-0.42,1.172 c-0.278,0.362-0.642,0.637-1.089,0.821c0.578,0.168,1.053,0.444,1.426,0.831C249.813,40.745,250,41.245,250,41.857z M249.303,42.147c0-0.261-0.072-0.507-0.21-0.739c-0.14-0.233-0.336-0.444-0.588-0.637c-0.251-0.19-0.541-0.362-0.872-0.516 c-0.33-0.154-0.677-0.286-1.04-0.398c-0.242,0.084-0.471,0.188-0.684,0.308c-0.215,0.12-0.402,0.261-0.56,0.419 c-0.158,0.158-0.284,0.33-0.376,0.517c-0.094,0.187-0.141,0.386-0.141,0.601c0,0.279,0.065,0.544,0.197,0.796 c0.129,0.251,0.301,0.472,0.516,0.663c0.215,0.19,0.46,0.337,0.74,0.439c0.28,0.102,0.566,0.153,0.864,0.153 c0.251,0,0.507-0.039,0.763-0.118c0.254-0.079,0.483-0.187,0.684-0.322c0.199-0.134,0.367-0.3,0.501-0.495 C249.234,42.622,249.303,42.398,249.303,42.147z M248.715,37.735c0-0.279-0.059-0.535-0.175-0.769 c-0.116-0.232-0.267-0.43-0.452-0.593c-0.188-0.163-0.398-0.288-0.637-0.377c-0.236-0.088-0.477-0.133-0.719-0.133 c-0.188,0-0.369,0.028-0.544,0.084c-0.177,0.056-0.335,0.141-0.475,0.252c-0.142,0.11-0.253,0.251-0.343,0.418 c-0.089,0.168-0.133,0.363-0.133,0.586c0,0.252,0.061,0.485,0.183,0.698c0.119,0.215,0.281,0.405,0.481,0.573 s0.427,0.314,0.684,0.439c0.256,0.126,0.514,0.23,0.774,0.314c0.42-0.168,0.749-0.377,0.992-0.629 C248.595,38.351,248.715,38.062,248.715,37.735z"></path> </g> </g> </g> </svg> 