<svg xmlns="http://www.w3.org/2000/svg" width="165" height="51" viewBox="0 0 165 51" fill="none"><g clip-path="url(#clip0_945_4388)"><path d="M48.6962 25.2792C47.2199 25.2792 45.8567 25.0796 44.6079 24.6803C43.3592 24.2811 42.1159 23.7398 40.8761 23.0563V15.0353C41.6913 15.6252 42.5763 16.1863 43.5313 16.7151C44.4862 17.2438 45.4284 17.6736 46.3565 18.0046C47.2845 18.3373 48.1015 18.5027 48.802 18.5027C49.112 18.5027 49.3806 18.4596 49.6063 18.3714C49.8338 18.2833 50.0095 18.152 50.1331 17.9758C50.2567 17.7995 50.3194 17.5819 50.3194 17.3229C50.3194 17.0226 50.2317 16.7816 50.0561 16.6C49.8806 16.4183 49.6529 16.2727 49.3752 16.1648C49.0975 16.055 48.6945 15.9346 48.1678 15.7997C47.6715 15.6648 47.2434 15.5353 46.8833 15.4112C46.7184 15.3591 46.5589 15.3015 46.403 15.2404C46.2489 15.1774 46.0931 15.1163 45.939 15.0533C44.6276 14.5354 43.5724 13.9653 42.7716 13.343C41.9708 12.7208 41.3777 11.9564 40.9907 11.05C40.6037 10.1436 40.4102 9.02677 40.4102 7.69953C40.4102 6.15468 40.7972 4.82923 41.5712 3.7196C42.3452 2.61176 43.4236 1.76471 44.8067 1.17842C46.1898 0.592128 47.7843 0.300781 49.592 0.300781C50.7475 0.300781 51.8996 0.437464 53.0462 0.712624C54.1928 0.987784 55.3323 1.39423 56.4682 1.93376V9.42603C55.911 8.97102 55.2302 8.55558 54.424 8.18331C53.6195 7.81103 52.7954 7.51969 51.9534 7.31287C51.1113 7.10605 50.366 7.00174 49.7157 7.00174C49.2516 7.00174 48.8826 7.04131 48.6085 7.11864C48.3344 7.19597 48.1409 7.30747 48.028 7.45315C47.9152 7.59882 47.8578 7.76967 47.8578 7.9657C47.8578 8.22467 47.9276 8.43509 48.0674 8.59515C48.2071 8.75521 48.4364 8.89729 48.7553 9.02318C49.076 9.14727 49.576 9.31452 50.2586 9.52134C50.2783 9.53213 50.2979 9.53753 50.3123 9.53753C50.3266 9.53753 50.3463 9.54293 50.366 9.55192C50.3857 9.56271 50.4089 9.5699 50.4358 9.5753C50.4609 9.58069 50.4843 9.58429 50.5058 9.58429C51.9086 9.99793 53.1537 10.5141 54.2376 11.1309C55.3215 11.7478 56.2064 12.5697 56.8926 13.5948C57.5788 14.6199 57.9228 15.8752 57.9228 17.3571C57.9228 19.0458 57.5323 20.4864 56.753 21.6787C55.9737 22.8693 54.8897 23.7703 53.5012 24.3764C52.1128 24.9825 50.5111 25.2846 48.6927 25.2846" fill="#002929"></path><path d="M58.529 12.9387L66.9368 3.64258H68.2842V8.38325H72.4656V14.6166H68.2842V17.0265C68.2842 17.7009 68.3844 18.1595 68.5851 18.4023C68.7857 18.6469 69.0831 18.7674 69.4754 18.7674C70.1562 18.7674 70.8119 18.6919 71.4407 18.5426C72.0714 18.3915 72.5767 18.2333 72.9583 18.0678L72.7111 24.3785L72.2776 24.5655C71.7401 24.7921 71.1865 24.9648 70.6132 25.0781C70.0399 25.1914 69.3106 25.2489 68.422 25.2489C66.5946 25.2489 65.1488 24.9432 64.0864 24.3317C63.0222 23.7203 62.2715 22.866 61.8326 21.7672C61.3937 20.6683 61.1751 19.3267 61.1751 17.7405V14.6166H58.5273V12.9387H58.529Z" fill="#002929"></path><path d="M83.7997 24.6575L82.6386 22.3735V15.5179C82.6386 15 82.5544 14.6133 82.3842 14.3597C82.214 14.1061 81.9563 13.9353 81.6105 13.8472C81.2647 13.7591 80.7718 13.7159 80.1304 13.7159C79.1092 13.7159 78.0882 13.8454 77.0723 14.1043C76.0547 14.3633 75.2164 14.6745 74.5571 15.0377L75.1769 9.09931C75.9401 8.71624 76.8628 8.40871 77.9413 8.17492C79.0198 7.94112 80.1735 7.82422 81.4026 7.82422C84.1168 7.82422 86.1968 8.44468 87.6426 9.682C89.0884 10.9193 89.805 12.8077 89.7961 15.3471L89.7495 24.6575H83.8032H83.7997ZM78.6903 25.2636C77.6583 25.2636 76.775 25.0676 76.0423 24.6737C75.3095 24.2799 74.7487 23.7098 74.3617 22.9634C73.9747 22.2171 73.7812 21.3161 73.7812 20.2586C73.7812 19.2856 74.0051 18.4278 74.4548 17.6868C74.9045 16.9459 75.5566 16.3704 76.4129 15.9621C77.2693 15.5521 78.2923 15.3471 79.4784 15.3471C80.8919 15.3471 82.5242 15.4981 84.3713 15.7985L83.4414 18.613C83.3895 18.6022 83.3357 18.5896 83.2784 18.5735C83.221 18.5573 83.1672 18.5447 83.1152 18.5339C82.7014 18.4512 82.3413 18.3972 82.0313 18.372C81.7214 18.345 81.4528 18.3325 81.2252 18.3325C80.7505 18.3325 80.4171 18.4655 80.2272 18.7281C80.0355 18.9925 79.9407 19.3216 79.9407 19.7155C79.9407 20.0572 80.0428 20.3269 80.2506 20.523C80.4567 20.7208 80.7523 20.8179 81.1339 20.8179C81.4224 20.8179 81.7446 20.7406 82.1012 20.5841C82.4577 20.4294 82.7696 20.1902 83.0383 19.8701L84.4322 21.7513C84.1008 22.352 83.6241 22.9221 83.0006 23.4616C82.3754 24.0011 81.6838 24.4363 80.926 24.7673C80.1663 25.0982 79.421 25.2636 78.6883 25.2636" fill="#002929"></path><path d="M111.796 15.8138C111.796 15.161 111.696 14.6556 111.496 14.2977C111.295 13.9399 110.992 13.7618 110.591 13.7618C110.27 13.7618 109.949 13.8607 109.631 14.0568C109.31 14.2546 109.011 14.5136 108.733 14.8355L106.936 10.9652C107.452 10.4275 108.054 9.91317 108.74 9.42579C109.426 8.94021 110.129 8.54636 110.847 8.24422C111.564 7.94388 112.218 7.79282 112.805 7.79282C114.24 7.79282 115.412 8.11653 116.32 8.76397C117.229 9.4114 117.89 10.3376 118.302 11.5389C118.714 12.7403 118.922 14.2024 118.922 15.9217V24.6567H111.798V15.812L111.796 15.8138ZM101.886 15.8282C101.886 15.4038 101.837 15.0387 101.739 14.733C101.64 14.4272 101.493 14.1916 101.298 14.0262C101.101 13.8607 100.865 13.778 100.585 13.778C100.275 13.778 99.96 13.8769 99.6411 14.0729C99.3204 14.2708 99.0159 14.5297 98.7274 14.8499L96.9305 10.9635C97.4464 10.4257 98.0485 9.91137 98.7346 9.42399C99.4208 8.93841 100.123 8.54456 100.841 8.24242C101.558 7.94209 102.212 7.79102 102.799 7.79102C104.213 7.79102 105.361 8.10214 106.245 8.7226C107.128 9.34486 107.774 10.2333 108.188 11.3897C108.6 12.5461 108.819 13.9524 108.839 15.6106V24.6567H101.886V15.8282ZM98.9281 24.6567H91.8047V8.3827H97.7815L98.9281 10.6667V24.6567Z" fill="#002929"></path><path d="M120.933 8.3835H128.057V24.6575H120.933V8.3835ZM124.495 7.52744C123.71 7.52744 123.013 7.37817 122.404 7.07603C121.795 6.7757 121.322 6.35127 120.987 5.80275C120.652 5.25243 120.484 4.62657 120.484 3.92159C120.484 3.2166 120.652 2.57456 120.987 2.02604C121.322 1.47572 121.795 1.04949 122.404 0.743754C123.013 0.438021 123.71 0.285156 124.495 0.285156C125.28 0.285156 125.977 0.438021 126.586 0.743754C127.195 1.04949 127.67 1.47752 128.01 2.02604C128.35 2.57456 128.521 3.20761 128.521 3.92159C128.521 4.63556 128.35 5.25243 128.01 5.80275C127.67 6.35127 127.195 6.7757 126.586 7.07603C125.977 7.37637 125.28 7.52744 124.495 7.52744Z" fill="#002929"></path><path d="M140.492 15.9219C140.492 15.4453 140.438 15.0496 140.329 14.7331C140.221 14.4166 140.066 14.1792 139.865 14.0173C139.664 13.8573 139.419 13.7764 139.13 13.7764C138.708 13.7764 138.351 13.8645 138.063 14.0407C137.774 14.217 137.505 14.4292 137.258 14.6774L135.834 10.4654C136.319 9.97806 136.878 9.53385 137.514 9.1292C138.149 8.72456 138.817 8.40084 139.519 8.15805C140.221 7.91346 140.899 7.79297 141.549 7.79297C142.86 7.79297 143.964 8.09151 144.863 8.68679C145.761 9.28207 146.442 10.1921 146.908 11.415C147.372 12.6379 147.604 14.181 147.604 16.0478V24.6587H140.497V15.9237L140.492 15.9219ZM137.256 24.6569H130.133V8.38285H136.11L137.256 10.6669V24.6569Z" fill="#002929"></path><path d="M159.01 24.6575L157.849 22.3735V15.5179C157.849 15 157.765 14.6133 157.593 14.3597C157.423 14.1061 157.165 13.9353 156.819 13.8472C156.473 13.7591 155.979 13.7159 155.339 13.7159C154.318 13.7159 153.299 13.8454 152.281 14.1043C151.263 14.3633 150.425 14.6745 149.764 15.0377L150.382 9.09931C151.145 8.71624 152.068 8.40871 153.146 8.17492C154.225 7.94112 155.378 7.82422 156.607 7.82422C159.322 7.82422 161.402 8.44468 162.848 9.682C164.293 10.9193 165.01 12.8077 164.999 15.3471L164.953 24.6575H159.007H159.01ZM153.901 25.2636C152.867 25.2636 151.985 25.0676 151.253 24.6737C150.52 24.2799 149.959 23.7098 149.572 22.9634C149.185 22.2171 148.992 21.3161 148.992 20.2586C148.992 19.2856 149.215 18.4278 149.665 17.6868C150.115 16.9459 150.767 16.3704 151.623 15.9621C152.48 15.5521 153.503 15.3471 154.689 15.3471C156.102 15.3471 157.734 15.4981 159.582 15.7985L158.652 18.613C158.6 18.6022 158.546 18.5896 158.491 18.5735C158.433 18.5573 158.379 18.5447 158.327 18.5339C157.915 18.4512 157.554 18.3972 157.244 18.372C156.934 18.345 156.665 18.3325 156.437 18.3325C155.963 18.3325 155.629 18.4655 155.439 18.7281C155.248 18.9925 155.153 19.3216 155.153 19.7155C155.153 20.0572 155.255 20.3269 155.463 20.523C155.669 20.7208 155.964 20.8179 156.346 20.8179C156.634 20.8179 156.957 20.7406 157.313 20.5841C157.67 20.4294 157.982 20.1902 158.25 19.8701L159.644 21.7513C159.315 22.352 158.836 22.9221 158.213 23.4616C157.587 24.0011 156.896 24.4363 156.138 24.7673C155.38 25.0982 154.633 25.2636 153.901 25.2636Z" fill="#002929"></path><path d="M24.2166 6.5419C24.2166 3.1015 21.411 0.285156 17.9837 0.285156H6.23287C2.8056 0.285156 0 3.1015 0 6.5419C0 9.9823 2.6354 12.6152 5.91935 12.7825C2.63719 12.9497 0 15.6887 0 19.023C0 22.3573 2.80381 25.2798 6.23287 25.2798H17.9837C21.411 25.2798 24.2166 22.4634 24.2166 19.023C24.2166 15.5826 21.5812 12.9497 18.2973 12.7825C21.5794 12.6152 24.2166 9.87619 24.2166 6.5419Z" fill="#002929"></path><path d="M10.9385 19.0223C10.9385 21.6012 8.85674 23.691 6.28763 23.691C3.71852 23.691 1.63672 21.6012 1.63672 19.0223C1.63672 16.4433 3.71852 14.3535 6.28763 14.3535C8.85674 14.3535 10.9385 16.4433 10.9385 19.0223Z" fill="white"></path><path d="M13.2773 6.54178C13.2773 3.96282 15.3591 1.87305 17.9282 1.87305C20.4973 1.87305 22.5791 3.96282 22.5791 6.54178C22.5791 9.12073 20.4973 11.2105 17.9282 11.2105C15.3591 11.2105 13.2773 9.12073 13.2773 6.54178Z" fill="#E5FD36"></path><path d="M162.365 42.9354C161.938 42.9354 161.509 42.8804 161.077 42.7703C160.646 42.6646 160.289 42.5259 160.008 42.3542L159.961 41.0465C160.278 41.2623 160.653 41.434 161.084 41.5617C161.52 41.6894 161.925 41.7532 162.299 41.7532C163.193 41.7532 163.642 41.3855 163.647 40.6502C163.651 40.3817 163.572 40.1813 163.409 40.0492C163.246 39.9171 162.881 39.719 162.313 39.4548C162.224 39.4152 162.158 39.3844 162.114 39.3624C161.454 39.0718 160.963 38.7283 160.642 38.3321C160.325 37.9314 160.166 37.4625 160.166 36.9253C160.166 36.3265 160.373 35.8399 160.787 35.4657C161.205 35.0914 161.749 34.9043 162.418 34.9043C163.096 34.9043 163.774 35.0562 164.452 35.36L164.492 36.6413C164.201 36.4828 163.871 36.3507 163.501 36.245C163.131 36.1393 162.821 36.0865 162.57 36.0865C162.222 36.0865 161.943 36.1614 161.731 36.3111C161.52 36.4564 161.414 36.6787 161.414 36.9781C161.414 37.2687 161.505 37.5087 161.685 37.698C161.866 37.8829 162.205 38.0921 162.702 38.3254C163.561 38.7041 164.16 39.0585 164.499 39.3888C164.838 39.719 165.005 40.1483 165.001 40.6767C164.992 41.3811 164.745 41.9337 164.261 42.3344C163.777 42.7351 163.145 42.9354 162.365 42.9354Z" fill="#002929"></path><path d="M155.2 34.0062L154.044 32.2097L155.286 32.2031L156.244 34.0062H155.2ZM159.011 38.3982C159.011 38.9442 158.991 39.2876 158.952 39.4285H153.232C153.276 40.1286 153.558 40.7076 154.078 41.1655C154.597 41.619 155.238 41.8457 155.999 41.8457C156.515 41.8457 156.97 41.7753 157.367 41.6344C157.767 41.4891 158.208 41.2756 158.687 40.9938L158.602 42.1694C157.659 42.6889 156.748 42.9487 155.867 42.9487C155.11 42.9487 154.436 42.7748 153.846 42.4269C153.256 42.0747 152.801 41.5882 152.479 40.9673C152.162 40.3421 152.004 39.6354 152.004 38.8473C152.004 38.2749 152.096 37.7443 152.281 37.2556C152.47 36.7625 152.726 36.3442 153.047 36.0007C153.373 35.6573 153.76 35.3887 154.21 35.195C154.659 35.0012 155.136 34.9044 155.643 34.9044C156.162 34.9044 156.636 34.9968 157.063 35.1818C157.494 35.3667 157.851 35.6199 158.133 35.9413C158.414 36.2583 158.63 36.6282 158.78 37.0509C158.934 37.4735 159.011 37.9227 159.011 38.3982ZM153.245 38.4114H157.862C157.88 37.6321 157.692 37.0354 157.301 36.6216C156.909 36.2033 156.38 35.9941 155.715 35.9941C154.985 35.9941 154.399 36.2099 153.959 36.6414C153.518 37.0729 153.281 37.6629 153.245 38.4114Z" fill="#002929"></path><path d="M148.613 42.9479C147.878 42.9479 147.211 42.7762 146.612 42.4327C146.017 42.0849 145.551 41.605 145.212 40.9929C144.873 40.3765 144.703 39.6896 144.703 38.9323C144.703 38.3643 144.802 37.8316 145 37.334C145.203 36.8321 145.476 36.405 145.819 36.0527C146.167 35.7005 146.583 35.4231 147.067 35.2206C147.552 35.0136 148.069 34.9102 148.62 34.9102C149.43 34.9102 150.161 35.1457 150.812 35.6168L150.878 36.7991C150.601 36.5437 150.273 36.3433 149.894 36.198C149.516 36.0527 149.122 35.9801 148.712 35.9801C147.919 35.9801 147.257 36.2619 146.724 36.8255C146.196 37.3891 145.932 38.0913 145.932 38.9323C145.932 39.7733 146.196 40.4756 146.724 41.0392C147.257 41.6028 147.922 41.8845 148.719 41.8845C149.124 41.8845 149.511 41.8119 149.881 41.6666C150.255 41.5213 150.581 41.3166 150.859 41.0524L150.839 42.2412C150.187 42.7123 149.445 42.9479 148.613 42.9479Z" fill="#002929"></path><path d="M141.316 42.9479C140.581 42.9479 139.914 42.7762 139.315 42.4327C138.721 42.0849 138.254 41.605 137.915 40.9929C137.576 40.3765 137.406 39.6896 137.406 38.9323C137.406 38.3643 137.506 37.8316 137.704 37.334C137.906 36.8321 138.179 36.405 138.523 36.0527C138.87 35.7005 139.287 35.4231 139.771 35.2206C140.255 35.0136 140.773 34.9102 141.323 34.9102C142.133 34.9102 142.864 35.1457 143.516 35.6168L143.582 36.7991C143.304 36.5437 142.976 36.3433 142.598 36.198C142.219 36.0527 141.825 35.9801 141.415 35.9801C140.623 35.9801 139.96 36.2619 139.427 36.8255C138.899 37.3891 138.635 38.0913 138.635 38.9323C138.635 39.7733 138.899 40.4756 139.427 41.0392C139.96 41.6028 140.625 41.8845 141.422 41.8845C141.827 41.8845 142.215 41.8119 142.584 41.6666C142.959 41.5213 143.285 41.3166 143.562 41.0524L143.542 42.2412C142.89 42.7123 142.149 42.9479 141.316 42.9479Z" fill="#002929"></path><path d="M134.592 35.168H135.873V42.6905H134.764L134.605 41.68C134.262 42.0587 133.861 42.3647 133.403 42.5981C132.945 42.827 132.494 42.9415 132.049 42.9415C130.253 42.9415 129.355 41.8055 129.355 39.5336V35.168H130.629V39.5402C130.629 40.2975 130.773 40.8699 131.059 41.2574C131.349 41.6448 131.805 41.8385 132.426 41.8385C132.809 41.8385 133.196 41.7197 133.588 41.4819C133.985 41.2397 134.321 40.9205 134.599 40.5242L134.592 35.168Z" fill="#002929"></path><path d="M125.307 42.9354C124.879 42.9354 124.45 42.8804 124.019 42.7703C123.587 42.6646 123.23 42.5259 122.949 42.3542L122.902 41.0465C123.219 41.2623 123.594 41.434 124.025 41.5617C124.461 41.6894 124.866 41.7532 125.24 41.7532C126.134 41.7532 126.583 41.3855 126.588 40.6502C126.592 40.3817 126.513 40.1813 126.35 40.0492C126.187 39.9171 125.822 39.719 125.254 39.4548C125.166 39.4152 125.1 39.3844 125.056 39.3624C124.395 39.0718 123.904 38.7283 123.583 38.3321C123.266 37.9314 123.107 37.4625 123.107 36.9253C123.107 36.3265 123.314 35.8399 123.728 35.4657C124.146 35.0914 124.69 34.9043 125.359 34.9043C126.037 34.9043 126.715 35.0562 127.394 35.36L127.433 36.6413C127.143 36.4828 126.812 36.3507 126.442 36.245C126.073 36.1393 125.762 36.0865 125.511 36.0865C125.163 36.0865 124.884 36.1614 124.672 36.3111C124.461 36.4564 124.355 36.6787 124.355 36.9781C124.355 37.2687 124.446 37.5087 124.626 37.698C124.807 37.8829 125.146 38.0921 125.643 38.3254C126.502 38.7041 127.101 39.0585 127.44 39.3888C127.779 39.719 127.946 40.1483 127.942 40.6767C127.933 41.3811 127.686 41.9337 127.202 42.3344C126.718 42.7351 126.086 42.9354 125.307 42.9354Z" fill="#002929"></path><path d="M115.651 42.9354C115.223 42.9354 114.794 42.8804 114.363 42.7703C113.931 42.6646 113.575 42.5259 113.293 42.3542L113.246 41.0465C113.564 41.2623 113.938 41.434 114.369 41.5617C114.805 41.6894 115.21 41.7532 115.584 41.7532C116.478 41.7532 116.927 41.3855 116.932 40.6502C116.936 40.3817 116.857 40.1813 116.694 40.0492C116.531 39.9171 116.166 39.719 115.598 39.4548C115.51 39.4152 115.444 39.3844 115.4 39.3624C114.739 39.0718 114.248 38.7283 113.927 38.3321C113.61 37.9314 113.451 37.4625 113.451 36.9253C113.451 36.3265 113.658 35.8399 114.072 35.4657C114.49 35.0914 115.034 34.9043 115.703 34.9043C116.381 34.9043 117.059 35.0562 117.738 35.36L117.777 36.6413C117.487 36.4828 117.156 36.3507 116.787 36.245C116.417 36.1393 116.106 36.0865 115.855 36.0865C115.507 36.0865 115.228 36.1614 115.016 36.3111C114.805 36.4564 114.699 36.6787 114.699 36.9781C114.699 37.2687 114.79 37.5087 114.97 37.698C115.151 37.8829 115.49 38.0921 115.987 38.3254C116.846 38.7041 117.445 39.0585 117.784 39.3888C118.123 39.719 118.29 40.1483 118.286 40.6767C118.277 41.3811 118.03 41.9337 117.546 42.3344C117.062 42.7351 116.43 42.9354 115.651 42.9354Z" fill="#002929"></path><path d="M108.211 42.9479C107.462 42.9479 106.784 42.7762 106.177 42.4327C105.574 42.0849 105.1 41.605 104.757 40.9929C104.413 40.3765 104.242 39.6896 104.242 38.9323C104.242 38.1706 104.413 37.4837 104.757 36.8717C105.1 36.2553 105.574 35.7754 106.177 35.4319C106.784 35.0841 107.465 34.9102 108.218 34.9102C108.781 34.9102 109.309 35.0136 109.803 35.2206C110.296 35.4231 110.716 35.7005 111.064 36.0527C111.416 36.405 111.694 36.8321 111.896 37.334C112.099 37.8316 112.2 38.3643 112.2 38.9323C112.2 39.5003 112.099 40.0331 111.896 40.5306C111.694 41.0282 111.416 41.4553 111.064 41.8119C110.716 42.1641 110.294 42.4415 109.796 42.6441C109.303 42.8466 108.775 42.9479 108.211 42.9479ZM108.231 41.8449C109.006 41.8449 109.655 41.5675 110.179 41.0127C110.707 40.458 110.972 39.7645 110.972 38.9323C110.972 38.1001 110.707 37.4045 110.179 36.8453C109.655 36.2861 109.003 36.0065 108.224 36.0065C107.445 36.0065 106.791 36.2861 106.263 36.8453C105.734 37.4045 105.47 38.1001 105.47 38.9323C105.47 39.7645 105.734 40.458 106.263 41.0127C106.791 41.5675 107.447 41.8449 108.231 41.8449Z" fill="#002929"></path><path d="M102.564 35.1758H103.858L100.741 42.6983H99.797L96.6797 35.1758H98.0733L100.305 40.75H100.351L102.564 35.1758Z" fill="#002929"></path><path d="M91.212 44.3948H90.3203L90.994 41.5879H92.4338L91.212 44.3948Z" fill="#002929"></path><path d="M89.6012 38.3981C89.6012 38.9441 89.5813 39.2875 89.5417 39.4284H83.8223C83.8663 40.1285 84.148 40.7075 84.6676 41.1654C85.1871 41.6189 85.8278 41.8457 86.5895 41.8457C87.1046 41.8457 87.5603 41.7752 87.9566 41.6343C88.3573 41.489 88.7976 41.2755 89.2775 40.9937L89.1917 42.1693C88.2494 42.6888 87.3381 42.9486 86.4575 42.9486C85.7002 42.9486 85.0264 42.7747 84.4364 42.4269C83.8464 42.0746 83.3908 41.5881 83.0694 40.9673C82.7523 40.342 82.5938 39.6353 82.5938 38.8472C82.5938 38.2748 82.6862 37.7442 82.8711 37.2555C83.0605 36.7624 83.3158 36.3441 83.6372 36.0006C83.9631 35.6572 84.3505 35.3886 84.7997 35.1949C85.2488 35.0012 85.7265 34.9043 86.2328 34.9043C86.7524 34.9043 87.2257 34.9968 87.6528 35.1817C88.0843 35.3666 88.441 35.6198 88.7227 35.9412C89.0045 36.2582 89.2203 36.6281 89.37 37.0508C89.5241 37.4735 89.6012 37.9226 89.6012 38.3981ZM83.8354 38.4113H88.452C88.4696 37.632 88.2824 37.0354 87.8906 36.6215C87.4987 36.2032 86.9703 35.994 86.3055 35.994C85.5746 35.994 84.989 36.2098 84.5487 36.6413C84.1084 37.0728 83.8706 37.6628 83.8354 38.4113Z" fill="#002929"></path><path d="M80.4189 33.8929C80.1635 33.8929 79.95 33.8158 79.7782 33.6617C79.6109 33.5032 79.5273 33.3051 79.5273 33.0673C79.5273 32.8251 79.6109 32.6248 79.7782 32.4663C79.9456 32.3078 80.1591 32.2285 80.4189 32.2285C80.6787 32.2285 80.8922 32.3078 81.0595 32.4663C81.2268 32.6204 81.3105 32.8207 81.3105 33.0673C81.3105 33.3051 81.2268 33.5032 81.0595 33.6617C80.8922 33.8158 80.6787 33.8929 80.4189 33.8929ZM79.7848 42.6901V35.1675H81.0595V42.6901H79.7848Z" fill="#002929"></path><path d="M76.1358 41.4156C76.9944 41.4156 77.6284 41.5939 78.0379 41.9506C78.4474 42.3028 78.6521 42.7607 78.6521 43.3243C78.6521 43.8131 78.4694 44.2622 78.1039 44.6717C77.7385 45.0855 77.2365 45.4114 76.5981 45.6491C75.9641 45.8913 75.2662 46.0124 74.5045 46.0124C73.527 46.0124 72.7279 45.8363 72.107 45.484C71.4862 45.1318 71.1758 44.6386 71.1758 44.0046C71.1758 43.4498 71.6249 42.9281 72.5231 42.4393C72.1665 42.3337 71.9199 42.1377 71.7834 41.8515C71.6513 41.5609 71.5875 41.1999 71.5919 40.7684L72.5759 39.7909C71.9683 39.2581 71.6645 38.5735 71.6645 37.7369C71.6645 37.1909 71.7988 36.7022 72.0674 36.2707C72.336 35.8348 72.6992 35.5002 73.1571 35.2668C73.6195 35.029 74.1346 34.9102 74.7026 34.9102C75.1825 34.9102 75.6316 34.996 76.0499 35.1677H78.3681V36.1518L77.252 36.0924C77.5998 36.5723 77.7737 37.1227 77.7737 37.7435C77.7737 38.5493 77.4853 39.2185 76.9085 39.7513C76.3361 40.284 75.6074 40.5504 74.7224 40.5504C74.1588 40.5504 73.6525 40.4382 73.2034 40.2136L72.642 40.7618C72.642 40.9599 72.6926 41.1184 72.7939 41.2373C72.8996 41.3562 73.0999 41.4156 73.3949 41.4156H76.1358ZM74.7158 36.0329C74.2183 36.0329 73.8 36.1914 73.461 36.5085C73.1263 36.8211 72.959 37.2239 72.959 37.7171C72.959 38.2234 73.1263 38.6351 73.461 38.9521C73.7956 39.2691 74.2139 39.4277 74.7158 39.4277C75.2222 39.4277 75.6404 39.2714 75.9707 38.9587C76.3053 38.6417 76.4726 38.2322 76.4726 37.7303C76.4726 37.2283 76.3053 36.8211 75.9707 36.5085C75.6404 36.1914 75.2222 36.0329 74.7158 36.0329ZM74.5111 44.9689C75.3124 44.9689 75.9597 44.8346 76.4528 44.566C76.946 44.3018 77.1925 43.943 77.1925 43.4894C77.1925 43.124 77.0957 42.8686 76.9019 42.7233C76.7126 42.5824 76.3692 42.512 75.8716 42.512H73.4279C73.1153 42.7585 72.8886 42.9853 72.7477 43.1922C72.6112 43.4036 72.5429 43.6392 72.5429 43.8989C72.5429 44.6122 73.199 44.9689 74.5111 44.9689Z" fill="#002929"></path><path d="M70.8084 35.0819L70.8678 36.2707C70.4935 36.121 70.1171 36.0461 69.7384 36.0461C69.373 36.0461 69.0207 36.1628 68.6817 36.3962C68.3471 36.6295 68.0565 36.9576 67.8099 37.3803L67.8165 42.6903H66.5352V35.1677H67.6382L67.7901 36.1584C68.3977 35.3262 69.0846 34.9102 69.8507 34.9102C70.2162 34.9102 70.5354 34.9674 70.8084 35.0819Z" fill="#002929"></path><path d="M65.0816 38.3981C65.0816 38.9441 65.0618 39.2875 65.0222 39.4284H59.3026C59.3467 40.1285 59.6285 40.7075 60.148 41.1654C60.6676 41.6189 61.3082 41.8457 62.0699 41.8457C62.5851 41.8457 63.0408 41.7752 63.4371 41.6343C63.8377 41.489 64.2781 41.2755 64.758 40.9937L64.6721 42.1693C63.7299 42.6888 62.8184 42.9486 61.9378 42.9486C61.1805 42.9486 60.5069 42.7747 59.9169 42.4269C59.3269 42.0746 58.8711 41.5881 58.5497 40.9673C58.2327 40.342 58.0742 39.6353 58.0742 38.8472C58.0742 38.2748 58.1667 37.7442 58.3516 37.2555C58.5409 36.7624 58.7963 36.3441 59.1177 36.0006C59.4435 35.6572 59.831 35.3886 60.2801 35.1949C60.7292 35.0012 61.2069 34.9043 61.7133 34.9043C62.2328 34.9043 62.7062 34.9968 63.1333 35.1817C63.5648 35.3666 63.9214 35.6198 64.2032 35.9412C64.485 36.2582 64.7007 36.6281 64.8504 37.0508C65.0046 37.4735 65.0816 37.9226 65.0816 38.3981ZM59.3158 38.4113H63.9324C63.95 37.632 63.7629 37.0354 63.371 36.6215C62.9792 36.2032 62.4508 35.994 61.7859 35.994C61.055 35.994 60.4694 36.2098 60.0291 36.6413C59.5888 37.0728 59.3511 37.6628 59.3158 38.4113Z" fill="#002929"></path><path d="M53.9138 34.9102C55.7103 34.9102 56.6085 36.0483 56.6085 38.3247V42.6903H55.3338V38.3181C55.3338 37.5608 55.1885 36.9884 54.8979 36.6009C54.6117 36.209 54.1582 36.0131 53.5374 36.0131C53.1499 36.0131 52.7602 36.1342 52.3684 36.3764C51.9809 36.6141 51.6463 36.9311 51.3645 37.3274L51.3711 42.6903H50.0898V35.1677H51.1994L51.3579 36.165C51.7013 35.7908 52.102 35.4892 52.5599 35.2602C53.0178 35.0268 53.4691 34.9102 53.9138 34.9102Z" fill="#002929"></path><path d="M44.7883 34.0062L45.7459 32.2031L46.9612 32.2097L45.8054 34.0062H44.7883ZM48.6519 38.3982C48.6519 38.9442 48.6321 39.2876 48.5925 39.4285H42.873C42.917 40.1286 43.1988 40.7076 43.7184 41.1655C44.2379 41.619 44.8785 41.8457 45.6403 41.8457C46.1554 41.8457 46.6111 41.7753 47.0074 41.6344C47.4081 41.4891 47.8484 41.2756 48.3283 40.9938L48.2425 42.1694C47.3002 42.6889 46.3888 42.9487 45.5082 42.9487C44.7509 42.9487 44.0772 42.7748 43.4872 42.4269C42.8972 42.0747 42.4415 41.5882 42.1201 40.9673C41.803 40.3421 41.6445 39.6354 41.6445 38.8473C41.6445 38.2749 41.737 37.7443 41.9219 37.2556C42.1112 36.7625 42.3666 36.3442 42.688 36.0007C43.0139 35.6573 43.4013 35.3887 43.8504 35.195C44.2996 35.0012 44.7773 34.9044 45.2836 34.9044C45.8032 34.9044 46.2765 34.9968 46.7036 35.1818C47.1351 35.3667 47.4917 35.6199 47.7735 35.9413C48.0553 36.2583 48.2711 36.6282 48.4208 37.0509C48.5749 37.4735 48.6519 37.9227 48.6519 38.3982ZM42.8862 38.4114H47.5028C47.5204 37.6321 47.3332 37.0354 46.9414 36.6216C46.5495 36.2033 46.0211 35.9941 45.3563 35.9941C44.6254 35.9941 44.0398 36.2099 43.5995 36.6414C43.1592 37.0729 42.9214 37.6629 42.8862 38.4114Z" fill="#002929"></path><path d="M37.2652 38.3981C37.2652 38.9441 37.2454 39.2875 37.2058 39.4284H31.4863C31.5303 40.1285 31.8121 40.7075 32.3316 41.1654C32.8512 41.6189 33.4918 41.8457 34.2536 41.8457C34.7687 41.8457 35.2244 41.7752 35.6207 41.6343C36.0214 41.489 36.4617 41.2755 36.9416 40.9937L36.8557 42.1693C35.9135 42.6888 35.0021 42.9486 34.1215 42.9486C33.3641 42.9486 32.6905 42.7747 32.1005 42.4269C31.5105 42.0746 31.0548 41.5881 30.7333 40.9673C30.4163 40.342 30.2578 39.6353 30.2578 38.8472C30.2578 38.2748 30.3503 37.7442 30.5352 37.2555C30.7245 36.7624 30.9799 36.3441 31.3013 36.0006C31.6271 35.6572 32.0146 35.3886 32.4637 35.1949C32.9128 35.0012 33.3906 34.9043 33.8969 34.9043C34.4165 34.9043 34.8898 34.9968 35.3169 35.1817C35.7484 35.3666 36.105 35.6198 36.3868 35.9412C36.6686 36.2582 36.8844 36.6281 37.0341 37.0508C37.1882 37.4735 37.2652 37.9226 37.2652 38.3981ZM31.4995 38.4113H36.116C36.1336 37.632 35.9465 37.0354 35.5546 36.6215C35.1628 36.2032 34.6344 35.994 33.9696 35.994C33.2387 35.994 32.6531 36.2098 32.2128 36.6413C31.7725 37.0728 31.5347 37.6628 31.4995 38.4113Z" fill="#002929"></path><path d="M29.6754 35.0819L29.7349 36.2707C29.3606 36.121 28.9842 36.0461 28.6055 36.0461C28.2401 36.0461 27.8878 36.1628 27.5488 36.3962C27.2141 36.6295 26.9235 36.9576 26.677 37.3803L26.6836 42.6903H25.4023V35.1677H26.5053L26.6572 36.1584C27.2648 35.3262 27.9517 34.9102 28.7178 34.9102C29.0832 34.9102 29.4025 34.9674 29.6754 35.0819Z" fill="#002929"></path><path d="M18.6992 36.0874L21.2551 33.0625H21.407V35.1693H23.8309V36.2855H21.3872V40.1756C21.3872 40.6599 21.5039 41.0452 21.7372 41.3314C21.975 41.6132 22.303 41.7541 22.7213 41.7541C23.2761 41.7541 23.8089 41.633 24.3196 41.3908V42.54C23.7296 42.813 23.1484 42.9495 22.576 42.9495C22.1269 42.9495 21.7394 42.8812 21.4136 42.7447C21.0922 42.6127 20.8368 42.4189 20.6475 42.1635C20.4582 41.9082 20.3195 41.6132 20.2314 41.2785C20.1478 40.9395 20.1059 40.5498 20.1059 40.1095V36.2855H18.6992V36.0874Z" fill="#002929"></path><path d="M14.1529 42.9479C13.4044 42.9479 12.7264 42.7762 12.1187 42.4327C11.5155 42.0849 11.0422 41.605 10.6988 40.9929C10.3553 40.3765 10.1836 39.6896 10.1836 38.9323C10.1836 38.1706 10.3553 37.4837 10.6988 36.8717C11.0422 36.2553 11.5155 35.7754 12.1187 35.4319C12.7264 35.0841 13.4066 34.9102 14.1595 34.9102C14.7231 34.9102 15.2515 35.0136 15.7446 35.2206C16.2378 35.4231 16.6583 35.7005 17.0061 36.0527C17.3583 36.405 17.6357 36.8321 17.8383 37.334C18.0408 37.8316 18.1421 38.3643 18.1421 38.9323C18.1421 39.5003 18.0408 40.0331 17.8383 40.5306C17.6357 41.0282 17.3583 41.4553 17.0061 41.8119C16.6583 42.1641 16.2356 42.4415 15.738 42.6441C15.2449 42.8466 14.7165 42.9479 14.1529 42.9479ZM14.1727 41.8449C14.9477 41.8449 15.5971 41.5675 16.1211 41.0127C16.6495 40.458 16.9136 39.7645 16.9136 38.9323C16.9136 38.1001 16.6495 37.4045 16.1211 36.8453C15.5971 36.2861 14.9455 36.0065 14.1661 36.0065C13.3868 36.0065 12.733 36.2861 12.2046 36.8453C11.6762 37.4045 11.4121 38.1001 11.4121 38.9323C11.4121 39.7645 11.6762 40.458 12.2046 41.0127C12.733 41.5675 13.389 41.8449 14.1727 41.8449Z" fill="#002929"></path><path d="M7.31122 32.6057H8.67836V42.988H8.3019L1.36053 35.5249L1.36714 42.6908H0V32.3613H0.376459L7.31122 39.9103V32.6057Z" fill="#002929"></path></g><defs><clipPath id="clip0_945_4388"><rect width="165" height="51" fill="white"></rect></clipPath></defs></svg>