<svg id="f8300392-5520-4f82-938e-560ff16f9749" data-name="Calque 1" xmlns="http://www.w3.org/2000/svg" xmlns:xlink="http://www.w3.org/1999/xlink" width="200" height="170" viewBox="0 0 200 170">
  <defs>
    <style>
      .b695df71-aa43-426b-815b-bbdbce40f536, .bc9e7d5d-0ee1-4dd0-b68d-fe378a5ab624 {
        fill: none;
      }

      .b9935fb1-1f74-41e4-84e6-7662c01075b4 {
        fill: #313c5b;
      }

      .b695df71-aa43-426b-815b-bbdbce40f536 {
        stroke: #313b5b;
        stroke-miterlimit: 10;
        stroke-width: 0.87px;
      }

      .ba75b35a-8931-4b28-8085-694415ffc4c8 {
        clip-path: url(#ab5f4b30-fcbc-471b-9f02-6d2ed38617c0);
      }

      .e8a94021-6745-4bc9-9b5e-bf31cbe65bb8 {
        fill: #c3c90c;
      }
    </style>
    <clipPath id="ab5f4b30-fcbc-471b-9f02-6d2ed38617c0">
      <rect class="bc9e7d5d-0ee1-4dd0-b68d-fe378a5ab624" x="74.5" y="4.2" width="51" height="73.7"/>
    </clipPath>
  </defs>
  <g>
    <g>
      <g>
        <path class="b9935fb1-1f74-41e4-84e6-7662c01075b4" d="M53.5,114.7H48.7l-2.6-6.4H37.7l-2.5,6.4H33L43,89.5h.1Zm-11.6-17-3.6,9h7.2Z"/>
        <polygon class="b9935fb1-1f74-41e4-84e6-7662c01075b4" points="72.4 114.7 72.4 90.2 77.1 90.2 77.1 112.8 86.9 112.8 86.9 114.7 72.4 114.7"/>
        <polygon class="b9935fb1-1f74-41e4-84e6-7662c01075b4" points="106.2 114.7 106.2 90.2 120.7 90.2 120.7 91.8 110.8 91.8 110.8 101.2 120.1 101.2 120.1 102.8 110.8 102.8 110.8 113.1 120.8 113.1 120.8 114.7 106.2 114.7"/>
        <polygon class="b9935fb1-1f74-41e4-84e6-7662c01075b4" points="140.1 114.7 140.1 90.2 144.2 90.2 157.1 107.1 157.1 107.1 157.1 90.2 159.1 90.2 159.1 114.7 157.1 114.7 142.1 95.1 142.1 95.1 142.1 114.7 140.1 114.7"/>
        <polygon class="b9935fb1-1f74-41e4-84e6-7662c01075b4" points="183.3 113.1 196.8 113.1 196.8 114.7 176.9 114.7 190.5 91.8 178.2 91.8 178.2 90.2 197 90.2 183.3 113.1"/>
        <polygon class="b9935fb1-1f74-41e4-84e6-7662c01075b4" points="7.9 114.7 7.9 91.8 3 91.8 3 90.2 17.4 90.2 17.4 91.8 12.5 91.8 12.5 114.7 7.9 114.7"/>
      </g>
      <line class="b695df71-aa43-426b-815b-bbdbce40f536" x1="3.1" y1="122.9" x2="196.9" y2="122.9"/>
      <g class="ba75b35a-8931-4b28-8085-694415ffc4c8">
        <rect class="e8a94021-6745-4bc9-9b5e-bf31cbe65bb8" x="74.5" y="4.2" width="51" height="73.7"/>
        <g>
          <path class="b9935fb1-1f74-41e4-84e6-7662c01075b4" d="M102.9,36.9l17-27.2H109.5c-4,0-4.1,1.8-4.4,4.6h-1.4l.2-6.3h21.5v2L108.3,37.1h12c4,0,4.1-2,4.4-5.1h1.5l-.2,6.9H102.9Z"/>
          <path class="b9935fb1-1f74-41e4-84e6-7662c01075b4" d="M60.1,32.8c1-9.8,6.6-12.3,12.4-13.1v-.2c-5.2-1.9-9.6-5.6-8.7-14S72.4-7.6,82.2-6.6,99.1,0,98.1,9.3s-7,10.8-11.4,11.6h0c4.7,1.8,10.6,5.5,9.6,14.8C95.2,47,87.4,50.6,76.5,49.6S59.1,42.4,60.1,32.8M76.8,46.1c7.3.8,10.7-4.1,11.4-11s-2-12.7-8.9-13.4S68.9,27,68.2,33.2s2.1,12.3,8.6,12.9m2.8-27.3c7,.6,9.7-4.1,10.4-10.4S88.3-2.5,81.8-3.2s-9.4,4.3-10,9.9,1.3,11.4,7.8,12.1"/>
          <path class="b9935fb1-1f74-41e4-84e6-7662c01075b4" d="M97.6,55.7a16.8,16.8,0,0,1,2.6,8.9c0,7.7-5.5,13.3-13.6,13.3-11.1,0-16.3-9.1-16.3-18.8a46.2,46.2,0,0,1,1.4-10.8h2.9a22.7,22.7,0,0,0-1.3,8c0,8.1,4.5,15,13.7,15,4.2,0,9.4-3.2,9.4-9.2a10.7,10.7,0,0,0-4.1-8V50l26.5,1.3V74.5H115V56.6Z"/>
          <path class="b9935fb1-1f74-41e4-84e6-7662c01075b4" d="M114.2,40.5h-4.9c-4.6,0-4.7,1.9-5.1,5.1h-1.7l.3-7.2h27.6l.3,7.2H129c-.3-3.3-.3-5.2-5-5.2h-5V77.9h-4.9Z"/>
        </g>
      </g>
    </g>
    <g>
      <path class="b9935fb1-1f74-41e4-84e6-7662c01075b4" d="M32.2,142.7H25.9V131.5h6.3v1.1h-5v3.7h4.7v1.1H27.2v4.1h5Z"/>
      <path class="b9935fb1-1f74-41e4-84e6-7662c01075b4" d="M43.4,142.7H41.9l-6.1-9.4h-.1c.1,1.1.2,2.1.2,3v6.4H34.7V131.5h1.4l6.1,9.3h.1a10.3,10.3,0,0,0-.1-1.3v-8h1.2Z"/>
      <path class="b9935fb1-1f74-41e4-84e6-7662c01075b4" d="M49.9,142.7H48.6V132.6H45.1v-1.1h8.4v1.1H49.9Z"/>
      <path class="b9935fb1-1f74-41e4-84e6-7662c01075b4" d="M56.5,138v4.7H55.2V131.5h3a5.2,5.2,0,0,1,3.1.8,3,3,0,0,1,1,2.4,3.1,3.1,0,0,1-2.3,3l3.1,5H61.5L58.8,138Zm0-1.1h1.8a3.4,3.4,0,0,0,2-.5,2.4,2.4,0,0,0,.6-1.7,2,2,0,0,0-.6-1.6,4.1,4.1,0,0,0-2.1-.5H56.5Z"/>
      <path class="b9935fb1-1f74-41e4-84e6-7662c01075b4" d="M71.1,142.7H64.9V131.5h6.2v1.1H66.2v3.7h4.6v1.1H66.2v4.1h4.9Z"/>
      <path class="b9935fb1-1f74-41e4-84e6-7662c01075b4" d="M80.7,134.8a3.1,3.1,0,0,1-1.2,2.6,5,5,0,0,1-3.3.9H74.9v4.4H73.6V131.5h2.9Q80.7,131.5,80.7,134.8Zm-5.8,2.4h1.2a4.2,4.2,0,0,0,2.5-.6,2.1,2.1,0,0,0,.7-1.8,1.8,1.8,0,0,0-.7-1.6,3.4,3.4,0,0,0-2.2-.6H74.9Z"/>
      <path class="b9935fb1-1f74-41e4-84e6-7662c01075b4" d="M84.3,138v4.7H83V131.5h3.1a5.2,5.2,0,0,1,3.1.8,3,3,0,0,1,.9,2.4,3.1,3.1,0,0,1-2.2,3l3,5H89.4L86.7,138Zm0-1.1h1.8a4.1,4.1,0,0,0,2.1-.5,2.4,2.4,0,0,0,.6-1.7,1.8,1.8,0,0,0-.7-1.6,3.6,3.6,0,0,0-2.1-.5H84.3Z"/>
      <path class="b9935fb1-1f74-41e4-84e6-7662c01075b4" d="M99,142.7H92.7V131.5H99v1.1H94v3.7h4.7v1.1H94v4.1h5Z"/>
      <path class="b9935fb1-1f74-41e4-84e6-7662c01075b4" d="M110.2,142.7h-1.5l-6.1-9.4h-.1c.1,1.1.2,2.1.2,3v6.4h-1.2V131.5h1.4l6.1,9.3h.1a10.3,10.3,0,0,0-.1-1.3v-8h1.2Z"/>
      <path class="b9935fb1-1f74-41e4-84e6-7662c01075b4" d="M119.5,142.7h-6.2V131.5h6.2v1.1h-4.9v3.7h4.6v1.1h-4.6v4.1h4.9Z"/>
      <path class="b9935fb1-1f74-41e4-84e6-7662c01075b4" d="M130.5,131.5v7.2a3.8,3.8,0,0,1-1.2,3,4.2,4.2,0,0,1-3.2,1.1,3.9,3.9,0,0,1-3.1-1.1,4.1,4.1,0,0,1-1.1-3v-7.2h1.3v7.3a2.9,2.9,0,0,0,.8,2.1,3.4,3.4,0,0,0,4.4,0,2.9,2.9,0,0,0,.8-2.1v-7.3Z"/>
      <path class="b9935fb1-1f74-41e4-84e6-7662c01075b4" d="M134.7,138v4.7h-1.3V131.5h3.1a5.2,5.2,0,0,1,3.1.8,3,3,0,0,1,.9,2.4,3.1,3.1,0,0,1-2.2,3l3,5h-1.5l-2.7-4.7Zm0-1.1h1.8a3.4,3.4,0,0,0,2-.5,2.1,2.1,0,0,0,.7-1.7,1.8,1.8,0,0,0-.7-1.6,3.6,3.6,0,0,0-2.1-.5h-1.7Z"/>
      <path class="b9935fb1-1f74-41e4-84e6-7662c01075b4" d="M149.5,139.7a2.7,2.7,0,0,1-1.1,2.3,4.3,4.3,0,0,1-2.9.8,6.4,6.4,0,0,1-3.1-.5v-1.2l1.5.4,1.6.2a3.7,3.7,0,0,0,2-.5,1.7,1.7,0,0,0,.6-1.4c0-.4,0-.7-.2-.9a1.9,1.9,0,0,0-.8-.7,6.2,6.2,0,0,0-1.6-.7,6.1,6.1,0,0,1-2.3-1.3,3.4,3.4,0,0,1-.6-2,2.6,2.6,0,0,1,.9-2.1,4.2,4.2,0,0,1,2.6-.8,8.1,8.1,0,0,1,3.1.6l-.4,1.2a7.4,7.4,0,0,0-2.7-.6,2.4,2.4,0,0,0-1.6.4,1.5,1.5,0,0,0-.6,1.3c0,.4,0,.7.2.9a1.6,1.6,0,0,0,.7.7l1.6.7a8.6,8.6,0,0,1,2.4,1.3A2.9,2.9,0,0,1,149.5,139.7Z"/>
      <path class="b9935fb1-1f74-41e4-84e6-7662c01075b4" d="M160.2,142.7h-1.3v-5.3H153v5.3h-1.3V131.5H153v4.8h5.9v-4.8h1.3Z"/>
      <path class="b9935fb1-1f74-41e4-84e6-7662c01075b4" d="M163.3,142.7V131.5h1.3v11.2Z"/>
      <path class="b9935fb1-1f74-41e4-84e6-7662c01075b4" d="M174.8,134.8a3.1,3.1,0,0,1-1.2,2.6,5,5,0,0,1-3.3.9H169v4.4h-1.3V131.5h2.9Q174.8,131.5,174.8,134.8Zm-5.8,2.4h1.2a4.2,4.2,0,0,0,2.5-.6,2.1,2.1,0,0,0,.7-1.8,1.8,1.8,0,0,0-.7-1.6,3.5,3.5,0,0,0-2.3-.6H169Z"/>
      <path class="b9935fb1-1f74-41e4-84e6-7662c01075b4" d="M44.7,161.5V150.3H46v11.2Z"/>
      <path class="b9935fb1-1f74-41e4-84e6-7662c01075b4" d="M55.4,158.5a2.5,2.5,0,0,1-1.1,2.3,4.2,4.2,0,0,1-2.9.9,7.8,7.8,0,0,1-3-.5v-1.3l1.5.5h1.6a2.7,2.7,0,0,0,1.9-.5,1.5,1.5,0,0,0,.7-1.3,2.5,2.5,0,0,0-.2-1l-.8-.7-1.7-.7a5.5,5.5,0,0,1-2.2-1.3,2.7,2.7,0,0,1-.7-2,2.4,2.4,0,0,1,1-2.1,4,4,0,0,1,2.6-.7,7.3,7.3,0,0,1,3,.6l-.4,1.1a6.6,6.6,0,0,0-2.7-.6,2.5,2.5,0,0,0-1.6.5,1.4,1.4,0,0,0-.6,1.2,2,2,0,0,0,.2.9,1.9,1.9,0,0,0,.8.7,5.3,5.3,0,0,0,1.5.7,6.3,6.3,0,0,1,2.5,1.4A2.6,2.6,0,0,1,55.4,158.5Z"/>
      <path class="b9935fb1-1f74-41e4-84e6-7662c01075b4" d="M68.8,161.5l-1.4-3.6H62.9l-1.3,3.6H60.2l4.5-11.2h1.1l4.4,11.2ZM67,156.8l-1.3-3.5a15.6,15.6,0,0,1-.5-1.6,14.2,14.2,0,0,1-.5,1.6l-1.3,3.5Z"/>
      <path class="b9935fb1-1f74-41e4-84e6-7662c01075b4" d="M80.7,161.5l-3.8-9.9h0a23.5,23.5,0,0,1,.1,2.8v7.1H75.8V150.3h1.9l3.6,9.3h.1l3.5-9.3h2v11.2H85.6v-7.2a26.2,26.2,0,0,1,.1-2.7h-.1l-3.8,9.9Z"/>
      <path class="b9935fb1-1f74-41e4-84e6-7662c01075b4" d="M97,161.5l-1.4-3.6H91.1l-1.4,3.6H88.4l4.4-11.2h1.1l4.4,11.2Zm-1.8-4.7-1.3-3.5a6,6,0,0,1-.5-1.6,14.2,14.2,0,0,1-.5,1.6l-1.3,3.5Z"/>
      <path class="b9935fb1-1f74-41e4-84e6-7662c01075b4" d="M98.2,164.5l-1.1-.2v-1.2l1.1.2a1.7,1.7,0,0,0,1.2-.5,1.7,1.7,0,0,0,.4-1.3V150.3h1.3v11.1a3.9,3.9,0,0,1-.7,2.3A2.9,2.9,0,0,1,98.2,164.5Z"/>
      <path class="b9935fb1-1f74-41e4-84e6-7662c01075b4" d="M113.8,155.9a6.1,6.1,0,0,1-1.4,4.2,4.5,4.5,0,0,1-3.8,1.6,4.9,4.9,0,0,1-3.8-1.5,6.5,6.5,0,0,1-1.3-4.3,6.3,6.3,0,0,1,1.3-4.3,5,5,0,0,1,3.9-1.5,4.4,4.4,0,0,1,3.7,1.6A6.1,6.1,0,0,1,113.8,155.9Zm-8.9,0a5.3,5.3,0,0,0,.9,3.4,3.5,3.5,0,0,0,2.8,1.2,3.8,3.8,0,0,0,2.9-1.1,5.8,5.8,0,0,0,.9-3.5,5.3,5.3,0,0,0-.9-3.4,3.5,3.5,0,0,0-2.8-1.2,3.6,3.6,0,0,0-2.9,1.2A5.5,5.5,0,0,0,104.9,155.9Z"/>
      <path class="b9935fb1-1f74-41e4-84e6-7662c01075b4" d="M117.6,156.9v4.6h-1.3V150.3h3.1a5.1,5.1,0,0,1,3,.8,2.7,2.7,0,0,1,1,2.4,3,3,0,0,1-2.3,3l3.1,5h-1.6l-2.7-4.6Zm0-1.2h1.8a2.8,2.8,0,0,0,2-.5,2.2,2.2,0,0,0,.6-1.7,2.1,2.1,0,0,0-.6-1.6,4.1,4.1,0,0,0-2.1-.4h-1.7Z"/>
      <path class="b9935fb1-1f74-41e4-84e6-7662c01075b4" d="M137.1,161.5l-1.4-3.6h-4.5l-1.4,3.6h-1.3l4.4-11.2H134l4.4,11.2Zm-1.8-4.7-1.3-3.5a6,6,0,0,1-.5-1.6,14.2,14.2,0,0,1-.5,1.6l-1.3,3.5Z"/>
      <path class="b9935fb1-1f74-41e4-84e6-7662c01075b4" d="M141.3,156.9v4.6H140V150.3h3.1a5.1,5.1,0,0,1,3,.8,2.7,2.7,0,0,1,1,2.4,3,3,0,0,1-2.3,3l3.1,5h-1.6l-2.7-4.6Zm0-1.2h1.8a2.8,2.8,0,0,0,2-.5,2.2,2.2,0,0,0,.6-1.7,2.1,2.1,0,0,0-.6-1.6,4.1,4.1,0,0,0-2.1-.4h-1.7Z"/>
      <path class="b9935fb1-1f74-41e4-84e6-7662c01075b4" d="M153.1,161.5h-1.3v-10h-3.5v-1.2h8.4v1.2h-3.6Z"/>
    </g>
  </g>
</svg>
